{
	"patcher" : 	{
		"fileversion" : 1,
		"appversion" : 		{
			"major" : 8,
			"minor" : 5,
			"revision" : 6,
			"architecture" : "x64",
			"modernui" : 1
		}
,
		"classnamespace" : "box",
		"rect" : [ 34.0, 128.0, 1478.0, 783.0 ],
		"bglocked" : 0,
		"openinpresentation" : 1,
		"default_fontsize" : 12.0,
		"default_fontface" : 0,
		"default_fontname" : "Arial",
		"gridonopen" : 2,
		"gridsize" : [ 15.0, 15.0 ],
		"gridsnaponopen" : 1,
		"objectsnaponopen" : 1,
		"statusbarvisible" : 2,
		"toolbarvisible" : 1,
		"lefttoolbarpinned" : 0,
		"toptoolbarpinned" : 0,
		"righttoolbarpinned" : 2,
		"bottomtoolbarpinned" : 2,
		"toolbars_unpinned_last_save" : 12,
		"tallnewobj" : 0,
		"boxanimatetime" : 200,
		"enablehscroll" : 1,
		"enablevscroll" : 1,
		"devicewidth" : 0.0,
		"description" : "",
		"digest" : "",
		"tags" : "",
		"style" : "minimal",
		"subpatcher_template" : "kk_sp_empty",
		"assistshowspatchername" : 0,
		"boxes" : [ 			{
				"box" : 				{
					"id" : "obj-28",
					"maxclass" : "newobj",
					"numinlets" : 2,
					"numoutlets" : 1,
					"outlettype" : [ "" ],
					"patcher" : 					{
						"fileversion" : 1,
						"appversion" : 						{
							"major" : 8,
							"minor" : 5,
							"revision" : 6,
							"architecture" : "x64",
							"modernui" : 1
						}
,
						"classnamespace" : "box",
						"rect" : [ 59.0, 104.0, 640.0, 480.0 ],
						"bglocked" : 0,
						"openinpresentation" : 0,
						"default_fontsize" : 12.0,
						"default_fontface" : 0,
						"default_fontname" : "Arial",
						"gridonopen" : 1,
						"gridsize" : [ 15.0, 15.0 ],
						"gridsnaponopen" : 1,
						"objectsnaponopen" : 1,
						"statusbarvisible" : 2,
						"toolbarvisible" : 1,
						"lefttoolbarpinned" : 0,
						"toptoolbarpinned" : 0,
						"righttoolbarpinned" : 0,
						"bottomtoolbarpinned" : 0,
						"toolbars_unpinned_last_save" : 0,
						"tallnewobj" : 0,
						"boxanimatetime" : 200,
						"enablehscroll" : 1,
						"enablevscroll" : 1,
						"devicewidth" : 0.0,
						"description" : "",
						"digest" : "",
						"tags" : "",
						"style" : "",
						"subpatcher_template" : "kk_sp_empty",
						"assistshowspatchername" : 0,
						"boxes" : [ 							{
								"box" : 								{
									"id" : "obj-8",
									"maxclass" : "newobj",
									"numinlets" : 2,
									"numoutlets" : 1,
									"outlettype" : [ "int" ],
									"patching_rect" : [ 78.0, 278.0, 31.0, 22.0 ],
									"text" : "int 0"
								}

							}
, 							{
								"box" : 								{
									"id" : "obj-3",
									"maxclass" : "newobj",
									"numinlets" : 1,
									"numoutlets" : 3,
									"outlettype" : [ "", "int", "int" ],
									"patching_rect" : [ 122.249999999999886, 141.0, 61.0, 22.0 ],
									"text" : "change 0."
								}

							}
, 							{
								"box" : 								{
									"id" : "obj-55",
									"maxclass" : "newobj",
									"numinlets" : 1,
									"numoutlets" : 2,
									"outlettype" : [ "float", "int" ],
									"patching_rect" : [ 50.0, 100.0, 91.249999999999886, 22.0 ],
									"text" : "t f 1"
								}

							}
, 							{
								"box" : 								{
									"id" : "obj-47",
									"maxclass" : "newobj",
									"numinlets" : 2,
									"numoutlets" : 1,
									"outlettype" : [ "" ],
									"patching_rect" : [ 122.249999999999886, 195.74991924284484, 101.750000000000114, 22.0 ],
									"text" : "gate 1 0"
								}

							}
, 							{
								"box" : 								{
									"id" : "obj-43",
									"maxclass" : "newobj",
									"numinlets" : 1,
									"numoutlets" : 2,
									"outlettype" : [ "", "" ],
									"patching_rect" : [ 50.0, 243.0, 47.0, 22.0 ],
									"text" : "bline"
								}

							}
, 							{
								"box" : 								{
									"id" : "obj-33",
									"maxclass" : "newobj",
									"numinlets" : 2,
									"numoutlets" : 1,
									"outlettype" : [ "" ],
									"patching_rect" : [ 50.0, 141.0, 63.0, 22.0 ],
									"text" : "pak f 6"
								}

							}
, 							{
								"box" : 								{
									"comment" : "",
									"id" : "obj-10",
									"index" : 1,
									"maxclass" : "inlet",
									"numinlets" : 0,
									"numoutlets" : 1,
									"outlettype" : [ "" ],
									"patching_rect" : [ 50.0, 40.0, 30.0, 30.0 ]
								}

							}
, 							{
								"box" : 								{
									"comment" : "",
									"id" : "obj-11",
									"index" : 2,
									"maxclass" : "inlet",
									"numinlets" : 0,
									"numoutlets" : 1,
									"outlettype" : [ "" ],
									"patching_rect" : [ 204.25, 40.0, 30.0, 30.0 ]
								}

							}
, 							{
								"box" : 								{
									"comment" : "",
									"id" : "obj-12",
									"index" : 1,
									"maxclass" : "outlet",
									"numinlets" : 1,
									"numoutlets" : 0,
									"patching_rect" : [ 50.0, 382.5, 30.0, 30.0 ]
								}

							}
 ],
						"lines" : [ 							{
								"patchline" : 								{
									"destination" : [ "obj-55", 0 ],
									"source" : [ "obj-10", 0 ]
								}

							}
, 							{
								"patchline" : 								{
									"destination" : [ "obj-47", 1 ],
									"source" : [ "obj-11", 0 ]
								}

							}
, 							{
								"patchline" : 								{
									"destination" : [ "obj-47", 0 ],
									"source" : [ "obj-3", 0 ]
								}

							}
, 							{
								"patchline" : 								{
									"destination" : [ "obj-43", 0 ],
									"source" : [ "obj-33", 0 ]
								}

							}
, 							{
								"patchline" : 								{
									"destination" : [ "obj-12", 0 ],
									"source" : [ "obj-43", 0 ]
								}

							}
, 							{
								"patchline" : 								{
									"destination" : [ "obj-8", 0 ],
									"source" : [ "obj-43", 1 ]
								}

							}
, 							{
								"patchline" : 								{
									"destination" : [ "obj-43", 0 ],
									"source" : [ "obj-47", 0 ]
								}

							}
, 							{
								"patchline" : 								{
									"destination" : [ "obj-3", 0 ],
									"source" : [ "obj-55", 1 ]
								}

							}
, 							{
								"patchline" : 								{
									"destination" : [ "obj-33", 0 ],
									"source" : [ "obj-55", 0 ]
								}

							}
, 							{
								"patchline" : 								{
									"destination" : [ "obj-3", 0 ],
									"midpoints" : [ 87.5, 320.0, 256.0, 320.0, 256.0, 133.0, 131.749999999999886, 133.0 ],
									"source" : [ "obj-8", 0 ]
								}

							}
 ]
					}
,
					"patching_rect" : [ 155.5, 545.0, 44.0, 22.0 ],
					"saved_object_attributes" : 					{
						"description" : "",
						"digest" : "",
						"globalpatchername" : "",
						"tags" : ""
					}
,
					"text" : "p bline"
				}

			}
, 			{
				"box" : 				{
					"id" : "obj-30",
					"maxclass" : "newobj",
					"numinlets" : 0,
					"numoutlets" : 1,
					"outlettype" : [ "" ],
					"patching_rect" : [ 180.5, 493.0, 42.0, 22.0 ],
					"text" : "r draw"
				}

			}
, 			{
				"box" : 				{
					"angle" : 270.0,
					"bgcolor" : [ 0.65098, 0.65098, 0.65098, 0.43 ],
					"border" : 1,
					"id" : "obj-18",
					"maxclass" : "panel",
					"mode" : 0,
					"numinlets" : 1,
					"numoutlets" : 0,
					"patching_rect" : [ 1282.5, 118.0, 97.0, 25.0 ],
					"presentation" : 1,
					"presentation_rect" : [ 1137.0, 667.5, 170.0, 45.0 ],
					"proportion" : 0.5,
					"rounded" : 0
				}

			}
, 			{
				"box" : 				{
					"id" : "obj-20",
					"maxclass" : "newobj",
					"numinlets" : 1,
					"numoutlets" : 1,
					"outlettype" : [ "" ],
					"patching_rect" : [ 1232.0, 157.5, 76.0, 22.0 ],
					"text" : "prepend tam"
				}

			}
, 			{
				"box" : 				{
					"id" : "obj-21",
					"maxclass" : "newobj",
					"numinlets" : 2,
					"numoutlets" : 2,
					"outlettype" : [ "", "" ],
					"patching_rect" : [ 1196.0, 121.0, 55.0, 22.0 ],
					"text" : "zl slice 2"
				}

			}
, 			{
				"box" : 				{
					"id" : "obj-22",
					"maxclass" : "newobj",
					"numinlets" : 1,
					"numoutlets" : 3,
					"outlettype" : [ "", "", "" ],
					"patching_rect" : [ 1196.0, 77.0, 192.0, 22.0 ],
					"text" : "getattr presentation_rect @listen 0"
				}

			}
, 			{
				"box" : 				{
					"id" : "obj-23",
					"maxclass" : "newobj",
					"numinlets" : 1,
					"numoutlets" : 1,
					"outlettype" : [ "" ],
					"patching_rect" : [ 1232.0, 188.5, 95.0, 22.0 ],
					"saved_object_attributes" : 					{
						"filename" : "moduleSize.js",
						"parameter_enable" : 0
					}
,
					"text" : "js moduleSize.js"
				}

			}
, 			{
				"box" : 				{
					"id" : "obj-15",
					"maxclass" : "newobj",
					"numinlets" : 2,
					"numoutlets" : 2,
					"outlettype" : [ "", "" ],
					"patching_rect" : [ 126.0, 139.0, 75.0, 22.0 ],
					"text" : "route enable"
				}

			}
, 			{
				"box" : 				{
					"id" : "obj-11",
					"maxclass" : "newobj",
					"numinlets" : 2,
					"numoutlets" : 1,
					"outlettype" : [ "" ],
					"patching_rect" : [ 209.0, 139.0, 52.0, 22.0 ],
					"text" : "gate 1 1"
				}

			}
, 			{
				"box" : 				{
					"id" : "obj-8",
					"maxclass" : "newobj",
					"numinlets" : 1,
					"numoutlets" : 1,
					"outlettype" : [ "" ],
					"patching_rect" : [ 776.1875, 608.5, 72.0, 22.0 ],
					"text" : "prepend set"
				}

			}
, 			{
				"box" : 				{
					"color" : [ 0.9254901961, 0.3647058824, 0.3411764706, 1.0 ],
					"id" : "obj-3",
					"maxclass" : "newobj",
					"numinlets" : 1,
					"numoutlets" : 3,
					"outlettype" : [ "", "", "" ],
					"patching_rect" : [ 410.0, 121.0, 63.0, 22.0 ],
					"restore" : [ 1.103342916218207 ],
					"saved_object_attributes" : 					{
						"parameter_enable" : 0,
						"parameter_mappable" : 0
					}
,
					"text" : "pattr fader",
					"varname" : "fader"
				}

			}
, 			{
				"box" : 				{
					"id" : "obj-19",
					"maxclass" : "comment",
					"numinlets" : 1,
					"numoutlets" : 0,
					"patching_rect" : [ 352.0, 232.0, 84.0, 20.0 ],
					"text" : "mapped slider"
				}

			}
, 			{
				"box" : 				{
					"focusbordercolor" : [ 0.0, 0.0, 0.0, 0.0 ],
					"fontname" : "Arial",
					"fontsize" : 10.0,
					"id" : "obj-2",
					"maxclass" : "live.slider",
					"modulationcolor" : [ 0.427450980392157, 0.843137254901961, 1.0, 0.0 ],
					"numinlets" : 1,
					"numoutlets" : 2,
					"orientation" : 1,
					"outlettype" : [ "", "float" ],
					"parameter_enable" : 1,
					"patching_rect" : [ 310.0, 210.0, 126.0, 18.0 ],
					"presentation" : 1,
					"presentation_rect" : [ 1.0, 12.0, 166.0, 18.0 ],
					"saved_attribute_attributes" : 					{
						"focusbordercolor" : 						{
							"expression" : ""
						}
,
						"modulationcolor" : 						{
							"expression" : ""
						}
,
						"slidercolor" : 						{
							"expression" : ""
						}
,
						"textcolor" : 						{
							"expression" : ""
						}
,
						"tribordercolor" : 						{
							"expression" : ""
						}
,
						"tricolor" : 						{
							"expression" : ""
						}
,
						"trioncolor" : 						{
							"expression" : ""
						}
,
						"valueof" : 						{
							"parameter_initial" : [ 1.0 ],
							"parameter_initial_enable" : 1,
							"parameter_linknames" : 1,
							"parameter_longname" : "fader_slider",
							"parameter_mmax" : 1.5,
							"parameter_shortname" : "FADER",
							"parameter_type" : 0,
							"parameter_unitstyle" : 1
						}

					}
,
					"showname" : 0,
					"shownumber" : 0,
					"slidercolor" : [ 0.647058823529412, 0.662745098039216, 0.658823529411765, 0.0 ],
					"textcolor" : [ 0.07843137254902, 0.07843137254902, 0.07843137254902, 0.0 ],
					"tribordercolor" : [ 0.996078431372549, 0.0, 0.0, 0.0 ],
					"tricolor" : [ 0.647058823529412, 0.647058823529412, 0.647058823529412, 0.0 ],
					"trioncolor" : [ 0.996078431372549, 0.172549019607843, 0.172549019607843, 0.0 ],
					"varname" : "fader_slider"
				}

			}
, 			{
				"box" : 				{
					"id" : "obj-33",
					"maxclass" : "newobj",
					"numinlets" : 2,
					"numoutlets" : 1,
					"outlettype" : [ "int" ],
					"patching_rect" : [ 622.0, 572.0, 29.5, 22.0 ],
					"text" : "+ 1"
				}

			}
, 			{
				"box" : 				{
					"id" : "obj-32",
					"maxclass" : "newobj",
					"numinlets" : 2,
					"numoutlets" : 1,
					"outlettype" : [ "int" ],
					"patching_rect" : [ 798.6875, 425.5, 29.5, 22.0 ],
					"text" : "+ 1"
				}

			}
, 			{
				"box" : 				{
					"id" : "obj-48",
					"maxclass" : "newobj",
					"numinlets" : 3,
					"numoutlets" : 1,
					"outlettype" : [ "" ],
					"patching_rect" : [ 776.1875, 572.0, 62.0, 22.0 ],
					"text" : "switch 2 1"
				}

			}
, 			{
				"box" : 				{
					"id" : "obj-47",
					"maxclass" : "newobj",
					"numinlets" : 3,
					"numoutlets" : 1,
					"outlettype" : [ "" ],
					"patching_rect" : [ 798.6875, 493.0, 91.375, 22.0 ],
					"text" : "switch 2 1"
				}

			}
, 			{
				"box" : 				{
					"activebgoncolor" : [ 1.0, 0.648910641670227, 0.313351899385452, 1.0 ],
					"automation" : "off",
					"automationon" : "on",
					"bordercolor" : [ 0.0, 0.0, 0.0, 1.0 ],
					"fontname" : "American Typewriter",
					"fontsize" : 8.0,
					"id" : "obj-1",
					"maxclass" : "live.text",
					"numinlets" : 1,
					"numoutlets" : 2,
					"outlettype" : [ "", "" ],
					"parameter_enable" : 1,
					"patching_rect" : [ 622.0, 168.5, 38.200000000000045, 21.0 ],
					"presentation" : 1,
					"presentation_rect" : [ 27.0, 32.0, 26.0, 11.0 ],
					"saved_attribute_attributes" : 					{
						"activebgoncolor" : 						{
							"expression" : ""
						}
,
						"bordercolor" : 						{
							"expression" : ""
						}
,
						"valueof" : 						{
							"parameter_enum" : [ "off", "on" ],
							"parameter_initial" : [ 0.0 ],
							"parameter_initial_enable" : 1,
							"parameter_linknames" : 1,
							"parameter_longname" : "fader_clip",
							"parameter_mmax" : 1,
							"parameter_shortname" : "fader_clip",
							"parameter_type" : 2
						}

					}
,
					"text" : "clip",
					"texton" : "clip",
					"varname" : "fader_clip"
				}

			}
, 			{
				"box" : 				{
					"id" : "obj-41",
					"maxclass" : "newobj",
					"numinlets" : 6,
					"numoutlets" : 1,
					"outlettype" : [ "" ],
					"patching_rect" : [ 819.1875, 533.0, 97.0, 22.0 ],
					"text" : "scale 0. 1. 0. 1.5"
				}

			}
, 			{
				"box" : 				{
					"id" : "obj-27",
					"maxclass" : "message",
					"numinlets" : 2,
					"numoutlets" : 1,
					"outlettype" : [ "" ],
					"patching_rect" : [ 1112.75, 307.0, 29.5, 22.0 ],
					"text" : "1.5"
				}

			}
, 			{
				"box" : 				{
					"id" : "obj-26",
					"maxclass" : "message",
					"numinlets" : 2,
					"numoutlets" : 1,
					"outlettype" : [ "" ],
					"patching_rect" : [ 1147.75, 307.0, 29.5, 22.0 ],
					"text" : "1."
				}

			}
, 			{
				"box" : 				{
					"id" : "obj-24",
					"maxclass" : "newobj",
					"numinlets" : 3,
					"numoutlets" : 3,
					"outlettype" : [ "bang", "bang", "" ],
					"patching_rect" : [ 1112.75, 258.0, 89.0, 22.0 ],
					"text" : "sel 0 1"
				}

			}
, 			{
				"box" : 				{
					"id" : "obj-25",
					"maxclass" : "newobj",
					"numinlets" : 6,
					"numoutlets" : 1,
					"outlettype" : [ "" ],
					"patching_rect" : [ 1085.349999999999909, 364.0, 97.0, 22.0 ],
					"text" : "scale 0. 1. 0. 1.5"
				}

			}
, 			{
				"box" : 				{
					"id" : "obj-29",
					"maxclass" : "newobj",
					"numinlets" : 2,
					"numoutlets" : 1,
					"outlettype" : [ "int" ],
					"patching_rect" : [ 1008.0625, 258.0, 29.5, 22.0 ],
					"text" : "!= 1"
				}

			}
, 			{
				"box" : 				{
					"id" : "obj-34",
					"maxclass" : "newobj",
					"numinlets" : 1,
					"numoutlets" : 5,
					"outlettype" : [ "bang", "int", "int", "int", "int" ],
					"patching_rect" : [ 694.0, 219.0, 437.75, 22.0 ],
					"text" : "t b i i i i"
				}

			}
, 			{
				"box" : 				{
					"id" : "obj-35",
					"maxclass" : "newobj",
					"numinlets" : 1,
					"numoutlets" : 1,
					"outlettype" : [ "" ],
					"patching_rect" : [ 1008.0625, 307.0, 92.0, 22.0 ],
					"text" : "prepend hidden"
				}

			}
, 			{
				"box" : 				{
					"id" : "obj-13",
					"maxclass" : "newobj",
					"numinlets" : 1,
					"numoutlets" : 1,
					"outlettype" : [ "" ],
					"patching_rect" : [ 903.375, 307.0, 92.0, 22.0 ],
					"text" : "prepend hidden"
				}

			}
, 			{
				"box" : 				{
					"color" : [ 0.9254901961, 0.3647058824, 0.3411764706, 1.0 ],
					"id" : "obj-9",
					"maxclass" : "newobj",
					"numinlets" : 1,
					"numoutlets" : 3,
					"outlettype" : [ "", "", "" ],
					"patching_rect" : [ 514.5, 121.0, 234.0, 22.0 ],
					"restore" : [ 0.0 ],
					"saved_object_attributes" : 					{
						"parameter_enable" : 0,
						"parameter_mappable" : 0
					}
,
					"text" : "pattr fader_clip_range @default_priority -1",
					"varname" : "fader_clip_range"
				}

			}
, 			{
				"box" : 				{
					"id" : "obj-6",
					"maxclass" : "newobj",
					"numinlets" : 4,
					"numoutlets" : 4,
					"outlettype" : [ "", "", "", "" ],
					"patching_rect" : [ 106.0, 77.0, 223.0, 22.0 ],
					"text" : "routepass enable jit_gl_texture jit_matrix"
				}

			}
, 			{
				"box" : 				{
					"id" : "obj-16",
					"maxclass" : "newobj",
					"numinlets" : 1,
					"numoutlets" : 1,
					"outlettype" : [ "" ],
					"patching_rect" : [ 155.5, 586.0, 93.0, 22.0 ],
					"text" : "prepend master"
				}

			}
, 			{
				"box" : 				{
					"id" : "obj-14",
					"maxclass" : "newobj",
					"numinlets" : 3,
					"numoutlets" : 3,
					"outlettype" : [ "", "", "" ],
					"patching_rect" : [ 310.0, 121.0, 88.0, 22.0 ],
					"text" : "route fader clip"
				}

			}
, 			{
				"box" : 				{
					"color" : [ 0.0, 0.0, 0.0, 1.0 ],
					"id" : "obj-5",
					"maxclass" : "newobj",
					"numinlets" : 1,
					"numoutlets" : 1,
					"outlettype" : [ "bang" ],
					"patching_rect" : [ 1071.75, 41.0, 60.0, 22.0 ],
					"text" : "loadbang"
				}

			}
, 			{
				"box" : 				{
					"comment" : "Texture In / Control In",
					"id" : "obj-10",
					"index" : 0,
					"maxclass" : "inlet",
					"numinlets" : 0,
					"numoutlets" : 1,
					"outlettype" : [ "" ],
					"patching_rect" : [ 106.0, 26.0, 30.0, 30.0 ]
				}

			}
, 			{
				"box" : 				{
					"comment" : "Texture Out",
					"id" : "obj-4",
					"index" : 0,
					"maxclass" : "outlet",
					"numinlets" : 1,
					"numoutlets" : 0,
					"patching_rect" : [ 106.0, 676.0, 30.0, 30.0 ]
				}

			}
, 			{
				"box" : 				{
					"color" : [ 0.3058820069, 0.717647016, 0.6745100021, 1.0 ],
					"id" : "obj-7",
					"maxclass" : "newobj",
					"numinlets" : 1,
					"numoutlets" : 2,
					"outlettype" : [ "jit_gl_texture", "" ],
					"patcher" : 					{
						"fileversion" : 1,
						"appversion" : 						{
							"major" : 8,
							"minor" : 5,
							"revision" : 6,
							"architecture" : "x64",
							"modernui" : 1
						}
,
						"classnamespace" : "jit.gen",
						"rect" : [ 84.0, 128.0, 600.0, 450.0 ],
						"bglocked" : 0,
						"openinpresentation" : 0,
						"default_fontsize" : 12.0,
						"default_fontface" : 0,
						"default_fontname" : "Arial",
						"gridonopen" : 1,
						"gridsize" : [ 15.0, 15.0 ],
						"gridsnaponopen" : 1,
						"objectsnaponopen" : 1,
						"statusbarvisible" : 2,
						"toolbarvisible" : 1,
						"lefttoolbarpinned" : 0,
						"toptoolbarpinned" : 0,
						"righttoolbarpinned" : 0,
						"bottomtoolbarpinned" : 0,
						"toolbars_unpinned_last_save" : 0,
						"tallnewobj" : 0,
						"boxanimatetime" : 200,
						"enablehscroll" : 1,
						"enablevscroll" : 1,
						"devicewidth" : 0.0,
						"description" : "",
						"digest" : "",
						"tags" : "",
						"style" : "",
						"subpatcher_template" : "",
						"assistshowspatchername" : 0,
						"boxes" : [ 							{
								"box" : 								{
									"id" : "obj-5",
									"maxclass" : "newobj",
									"numinlets" : 0,
									"numoutlets" : 1,
									"outlettype" : [ "" ],
									"patching_rect" : [ 95.0, 60.0, 98.0, 22.0 ],
									"text" : "param master 1."
								}

							}
, 							{
								"box" : 								{
									"id" : "obj-1",
									"maxclass" : "newobj",
									"numinlets" : 0,
									"numoutlets" : 1,
									"outlettype" : [ "" ],
									"patching_rect" : [ 50.0, 14.0, 30.0, 22.0 ],
									"text" : "in 1"
								}

							}
, 							{
								"box" : 								{
									"id" : "obj-3",
									"maxclass" : "newobj",
									"numinlets" : 1,
									"numoutlets" : 1,
									"outlettype" : [ "" ],
									"patching_rect" : [ 50.0, 111.0, 55.0, 22.0 ],
									"text" : "* master"
								}

							}
, 							{
								"box" : 								{
									"id" : "obj-4",
									"maxclass" : "newobj",
									"numinlets" : 1,
									"numoutlets" : 0,
									"patching_rect" : [ 50.0, 212.0, 37.0, 22.0 ],
									"text" : "out 1"
								}

							}
 ],
						"lines" : [ 							{
								"patchline" : 								{
									"destination" : [ "obj-3", 0 ],
									"source" : [ "obj-1", 0 ]
								}

							}
, 							{
								"patchline" : 								{
									"destination" : [ "obj-4", 0 ],
									"source" : [ "obj-3", 0 ]
								}

							}
 ],
						"editing_bgcolor" : [ 0.9, 0.9, 0.9, 1.0 ]
					}
,
					"patching_rect" : [ 106.0, 627.0, 87.0, 22.0 ],
					"text" : "jit.gl.pix vsynth"
				}

			}
, 			{
				"box" : 				{
					"background" : 1,
					"focusbordercolor" : [ 0.0, 0.0, 0.0, 1.0 ],
					"fontface" : 3,
					"fontname" : "Arial",
					"fontsize" : 10.0,
					"id" : "obj-39",
					"maxclass" : "live.slider",
					"modulationcolor" : [ 0.427450980392157, 0.843137254901961, 1.0, 0.0 ],
					"numinlets" : 1,
					"numoutlets" : 2,
					"orientation" : 1,
					"outlettype" : [ "", "float" ],
					"parameter_enable" : 1,
					"parameter_mappable" : 0,
					"patching_rect" : [ 834.875, 416.5, 151.0, 40.0 ],
					"presentation" : 1,
					"presentation_rect" : [ 1.0, 3.0, 166.0, 40.0 ],
					"saved_attribute_attributes" : 					{
						"focusbordercolor" : 						{
							"expression" : ""
						}
,
						"modulationcolor" : 						{
							"expression" : ""
						}
,
						"slidercolor" : 						{
							"expression" : ""
						}
,
						"tricolor" : 						{
							"expression" : ""
						}
,
						"trioncolor" : 						{
							"expression" : ""
						}
,
						"valueof" : 						{
							"parameter_initial" : [ 1.0 ],
							"parameter_invisible" : 2,
							"parameter_linknames" : 1,
							"parameter_longname" : "live_slider",
							"parameter_mmax" : 1.5,
							"parameter_shortname" : "FADER",
							"parameter_type" : 0,
							"parameter_unitstyle" : 1
						}

					}
,
					"slidercolor" : [ 0.0, 0.0, 0.0, 1.0 ],
					"tricolor" : [ 0.0, 0.0, 0.0, 1.0 ],
					"trioncolor" : [ 1.0, 0.648910641670227, 0.313351899385452, 1.0 ],
					"varname" : "live_slider"
				}

			}
, 			{
				"box" : 				{
					"background" : 1,
					"focusbordercolor" : [ 0.0, 0.0, 0.0, 1.0 ],
					"fontface" : 3,
					"fontname" : "Arial",
					"fontsize" : 10.0,
					"hidden" : 1,
					"id" : "obj-40",
					"maxclass" : "live.slider",
					"modulationcolor" : [ 0.427450980392157, 0.843137254901961, 1.0, 0.0 ],
					"numinlets" : 1,
					"numoutlets" : 2,
					"orientation" : 1,
					"outlettype" : [ "", "float" ],
					"parameter_enable" : 1,
					"parameter_mappable" : 0,
					"patching_rect" : [ 1008.0625, 416.5, 151.0, 40.0 ],
					"presentation" : 1,
					"presentation_rect" : [ 1.0, 3.0, 166.0, 40.0 ],
					"saved_attribute_attributes" : 					{
						"focusbordercolor" : 						{
							"expression" : ""
						}
,
						"modulationcolor" : 						{
							"expression" : ""
						}
,
						"slidercolor" : 						{
							"expression" : ""
						}
,
						"tricolor" : 						{
							"expression" : ""
						}
,
						"trioncolor" : 						{
							"expression" : ""
						}
,
						"valueof" : 						{
							"parameter_initial" : [ 1.0 ],
							"parameter_invisible" : 2,
							"parameter_linknames" : 1,
							"parameter_longname" : "live_slider2",
							"parameter_mmax" : 1.0,
							"parameter_shortname" : "FADER",
							"parameter_type" : 0,
							"parameter_unitstyle" : 1
						}

					}
,
					"slidercolor" : [ 0.0, 0.0, 0.0, 1.0 ],
					"tricolor" : [ 0.0, 0.0, 0.0, 1.0 ],
					"trioncolor" : [ 1.0, 0.648910641670227, 0.313351899385452, 1.0 ],
					"varname" : "live_slider2"
				}

			}
 ],
		"lines" : [ 			{
				"patchline" : 				{
					"destination" : [ "obj-33", 0 ],
					"order" : 1,
					"source" : [ "obj-1", 0 ]
				}

			}
, 			{
				"patchline" : 				{
					"destination" : [ "obj-34", 0 ],
					"order" : 0,
					"source" : [ "obj-1", 0 ]
				}

			}
, 			{
				"patchline" : 				{
					"destination" : [ "obj-6", 0 ],
					"source" : [ "obj-10", 0 ]
				}

			}
, 			{
				"patchline" : 				{
					"color" : [ 0.3058820069, 0.717647016, 0.6745100021, 1.0 ],
					"destination" : [ "obj-7", 0 ],
					"source" : [ "obj-11", 0 ]
				}

			}
, 			{
				"patchline" : 				{
					"destination" : [ "obj-39", 0 ],
					"midpoints" : [ 912.875, 375.0, 844.375, 375.0 ],
					"source" : [ "obj-13", 0 ]
				}

			}
, 			{
				"patchline" : 				{
					"destination" : [ "obj-1", 0 ],
					"source" : [ "obj-14", 1 ]
				}

			}
, 			{
				"patchline" : 				{
					"destination" : [ "obj-2", 0 ],
					"source" : [ "obj-14", 0 ]
				}

			}
, 			{
				"patchline" : 				{
					"destination" : [ "obj-11", 0 ],
					"source" : [ "obj-15", 0 ]
				}

			}
, 			{
				"patchline" : 				{
					"destination" : [ "obj-7", 0 ],
					"source" : [ "obj-16", 0 ]
				}

			}
, 			{
				"patchline" : 				{
					"destination" : [ "obj-25", 0 ],
					"midpoints" : [ 426.5, 351.0, 1094.849999999999909, 351.0 ],
					"source" : [ "obj-2", 1 ]
				}

			}
, 			{
				"patchline" : 				{
					"destination" : [ "obj-23", 0 ],
					"source" : [ "obj-20", 0 ]
				}

			}
, 			{
				"patchline" : 				{
					"destination" : [ "obj-20", 0 ],
					"source" : [ "obj-21", 1 ]
				}

			}
, 			{
				"patchline" : 				{
					"destination" : [ "obj-18", 0 ],
					"source" : [ "obj-22", 1 ]
				}

			}
, 			{
				"patchline" : 				{
					"destination" : [ "obj-21", 0 ],
					"source" : [ "obj-22", 0 ]
				}

			}
, 			{
				"patchline" : 				{
					"destination" : [ "obj-26", 0 ],
					"source" : [ "obj-24", 1 ]
				}

			}
, 			{
				"patchline" : 				{
					"destination" : [ "obj-27", 0 ],
					"source" : [ "obj-24", 0 ]
				}

			}
, 			{
				"patchline" : 				{
					"destination" : [ "obj-39", 0 ],
					"midpoints" : [ 1094.849999999999909, 404.0, 844.375, 404.0 ],
					"order" : 1,
					"source" : [ "obj-25", 0 ]
				}

			}
, 			{
				"patchline" : 				{
					"destination" : [ "obj-40", 0 ],
					"midpoints" : [ 1094.849999999999909, 403.0, 1017.5625, 403.0 ],
					"order" : 0,
					"source" : [ "obj-25", 0 ]
				}

			}
, 			{
				"patchline" : 				{
					"destination" : [ "obj-25", 4 ],
					"source" : [ "obj-26", 0 ]
				}

			}
, 			{
				"patchline" : 				{
					"destination" : [ "obj-25", 4 ],
					"source" : [ "obj-27", 0 ]
				}

			}
, 			{
				"patchline" : 				{
					"destination" : [ "obj-16", 0 ],
					"source" : [ "obj-28", 0 ]
				}

			}
, 			{
				"patchline" : 				{
					"destination" : [ "obj-35", 0 ],
					"source" : [ "obj-29", 0 ]
				}

			}
, 			{
				"patchline" : 				{
					"destination" : [ "obj-2", 0 ],
					"source" : [ "obj-3", 1 ]
				}

			}
, 			{
				"patchline" : 				{
					"destination" : [ "obj-28", 1 ],
					"source" : [ "obj-30", 0 ]
				}

			}
, 			{
				"patchline" : 				{
					"destination" : [ "obj-47", 0 ],
					"source" : [ "obj-32", 0 ]
				}

			}
, 			{
				"patchline" : 				{
					"destination" : [ "obj-48", 0 ],
					"source" : [ "obj-33", 0 ]
				}

			}
, 			{
				"patchline" : 				{
					"destination" : [ "obj-13", 0 ],
					"source" : [ "obj-34", 2 ]
				}

			}
, 			{
				"patchline" : 				{
					"destination" : [ "obj-24", 0 ],
					"source" : [ "obj-34", 4 ]
				}

			}
, 			{
				"patchline" : 				{
					"destination" : [ "obj-29", 0 ],
					"source" : [ "obj-34", 3 ]
				}

			}
, 			{
				"patchline" : 				{
					"destination" : [ "obj-32", 0 ],
					"source" : [ "obj-34", 1 ]
				}

			}
, 			{
				"patchline" : 				{
					"destination" : [ "obj-39", 0 ],
					"midpoints" : [ 703.5, 395.0, 844.375, 395.0 ],
					"order" : 1,
					"source" : [ "obj-34", 0 ]
				}

			}
, 			{
				"patchline" : 				{
					"destination" : [ "obj-40", 0 ],
					"midpoints" : [ 703.5, 395.0, 1017.5625, 395.0 ],
					"order" : 0,
					"source" : [ "obj-34", 0 ]
				}

			}
, 			{
				"patchline" : 				{
					"destination" : [ "obj-40", 0 ],
					"source" : [ "obj-35", 0 ]
				}

			}
, 			{
				"patchline" : 				{
					"destination" : [ "obj-47", 1 ],
					"source" : [ "obj-39", 0 ]
				}

			}
, 			{
				"patchline" : 				{
					"destination" : [ "obj-47", 2 ],
					"source" : [ "obj-40", 0 ]
				}

			}
, 			{
				"patchline" : 				{
					"destination" : [ "obj-48", 2 ],
					"source" : [ "obj-41", 0 ]
				}

			}
, 			{
				"patchline" : 				{
					"color" : [ 0.01176470588, 0.3960784314, 0.7529411765, 1.0 ],
					"destination" : [ "obj-28", 0 ],
					"midpoints" : [ 808.1875, 525.0, 165.0, 525.0 ],
					"order" : 2,
					"source" : [ "obj-47", 0 ]
				}

			}
, 			{
				"patchline" : 				{
					"destination" : [ "obj-41", 0 ],
					"order" : 0,
					"source" : [ "obj-47", 0 ]
				}

			}
, 			{
				"patchline" : 				{
					"destination" : [ "obj-48", 1 ],
					"order" : 1,
					"source" : [ "obj-47", 0 ]
				}

			}
, 			{
				"patchline" : 				{
					"destination" : [ "obj-8", 0 ],
					"source" : [ "obj-48", 0 ]
				}

			}
, 			{
				"patchline" : 				{
					"destination" : [ "obj-22", 0 ],
					"source" : [ "obj-5", 0 ]
				}

			}
, 			{
				"patchline" : 				{
					"destination" : [ "obj-11", 1 ],
					"source" : [ "obj-6", 2 ]
				}

			}
, 			{
				"patchline" : 				{
					"destination" : [ "obj-11", 1 ],
					"source" : [ "obj-6", 1 ]
				}

			}
, 			{
				"patchline" : 				{
					"destination" : [ "obj-14", 0 ],
					"source" : [ "obj-6", 3 ]
				}

			}
, 			{
				"patchline" : 				{
					"destination" : [ "obj-15", 0 ],
					"order" : 0,
					"source" : [ "obj-6", 0 ]
				}

			}
, 			{
				"patchline" : 				{
					"destination" : [ "obj-7", 0 ],
					"order" : 1,
					"source" : [ "obj-6", 0 ]
				}

			}
, 			{
				"patchline" : 				{
					"destination" : [ "obj-4", 0 ],
					"source" : [ "obj-7", 0 ]
				}

			}
, 			{
				"patchline" : 				{
					"destination" : [ "obj-2", 0 ],
					"midpoints" : [ 785.6875, 658.0, 537.0, 658.0, 537.0, 201.0, 319.5, 201.0 ],
					"source" : [ "obj-8", 0 ]
				}

			}
, 			{
				"patchline" : 				{
					"destination" : [ "obj-1", 0 ],
					"source" : [ "obj-9", 1 ]
				}

			}
 ],
		"parameters" : 		{
			"obj-1" : [ "fader_clip", "fader_clip", 0 ],
			"obj-2" : [ "fader_slider", "FADER", 0 ],
			"obj-39" : [ "live_slider", "FADER", 0 ],
			"obj-40" : [ "live_slider2", "FADER", 0 ],
			"parameterbanks" : 			{
				"0" : 				{
					"index" : 0,
					"name" : "",
					"parameters" : [ "-", "-", "-", "-", "-", "-", "-", "-" ]
				}

			}
,
			"inherited_shortname" : 1
		}
,
		"dependency_cache" : [ 			{
				"name" : "moduleSize.js",
				"bootpath" : "~/Documents/Max 8/Packages/Vsynth/javascript",
				"patcherrelativepath" : "../javascript",
				"type" : "TEXT",
				"implicit" : 1
			}
 ],
		"autosave" : 0,
		"styles" : [ 			{
				"name" : "AudioStatus_Menu",
				"default" : 				{
					"bgfillcolor" : 					{
						"angle" : 270.0,
						"autogradient" : 0,
						"color" : [ 0.294118, 0.313726, 0.337255, 1 ],
						"color1" : [ 0.454902, 0.462745, 0.482353, 0.0 ],
						"color2" : [ 0.290196, 0.309804, 0.301961, 1.0 ],
						"proportion" : 0.39,
						"type" : "color"
					}

				}
,
				"parentstyle" : "",
				"multi" : 0
			}
, 			{
				"name" : "buttonBlue",
				"default" : 				{
					"bgcolor" : [ 0.317647, 0.654902, 0.976471, 1.0 ]
				}
,
				"parentstyle" : "",
				"multi" : 0
			}
, 			{
				"name" : "buttonPurple",
				"default" : 				{
					"bgcolor" : [ 0.372549, 0.196078, 0.486275, 1.0 ]
				}
,
				"parentstyle" : "",
				"multi" : 0
			}
, 			{
				"name" : "comment001",
				"default" : 				{
					"fontname" : [ "Arial Bold" ],
					"fontsize" : [ 10.0 ],
					"textcolor" : [ 0.301961, 0.701961, 0.301961, 1.0 ],
					"textjustification" : [ 2 ]
				}
,
				"parentstyle" : "",
				"multi" : 0
			}
, 			{
				"name" : "default_style",
				"newobj" : 				{
					"accentcolor" : [ 0.65098, 0.666667, 0.662745, 1.0 ],
					"bgcolor" : [ 1.0, 1.0, 1.0, 1.0 ],
					"textcolor_inverse" : [ 0.0, 0.0, 0.0, 1.0 ]
				}
,
				"button" : 				{
					"bgcolor" : [ 0.682032, 0.698052, 0.748716, 1.0 ],
					"color" : [ 0.960784, 0.827451, 0.156863, 1.0 ]
				}
,
				"toggle" : 				{
					"bgcolor" : [ 0.636487, 0.648652, 0.683149, 1.0 ],
					"color" : [ 0.0, 0.0, 0.0, 1.0 ],
					"elementcolor" : [ 0.786675, 0.801885, 0.845022, 1.0 ]
				}
,
				"parentstyle" : "",
				"multi" : 1
			}
, 			{
				"name" : "default_style-1",
				"newobj" : 				{
					"accentcolor" : [ 0.65098, 0.666667, 0.662745, 1.0 ],
					"bgcolor" : [ 1.0, 1.0, 1.0, 1.0 ],
					"textcolor_inverse" : [ 0.0, 0.0, 0.0, 1.0 ]
				}
,
				"button" : 				{
					"bgcolor" : [ 0.682032, 0.698052, 0.748716, 1.0 ],
					"color" : [ 0.960784, 0.827451, 0.156863, 1.0 ]
				}
,
				"toggle" : 				{
					"bgcolor" : [ 0.636487, 0.648652, 0.683149, 1.0 ],
					"color" : [ 0.0, 0.0, 0.0, 1.0 ],
					"elementcolor" : [ 0.786675, 0.801885, 0.845022, 1.0 ]
				}
,
				"parentstyle" : "",
				"multi" : 0
			}
, 			{
				"name" : "helpfile_label-1",
				"default" : 				{
					"fontname" : [ "Arial" ],
					"fontsize" : [ 13.0 ],
					"textcolor" : [ 0.501961, 0.501961, 0.501961, 1.0 ]
				}
,
				"parentstyle" : "",
				"multi" : 0
			}
, 			{
				"name" : "m4vatextbutton",
				"default" : 				{
					"accentcolor" : [ 1.0, 1.0, 1.0, 1.0 ],
					"bgcolor" : [ 0.264542, 0.246412, 0.247132, 1.0 ],
					"color" : [ 1.0, 1.0, 1.0, 1.0 ],
					"elementcolor" : [ 0.264542, 0.246412, 0.247132, 1.0 ],
					"fontsize" : [ 14.0 ],
					"selectioncolor" : [ 0.960784, 0.827451, 0.156863, 1.0 ]
				}
,
				"parentstyle" : "",
				"multi" : 0
			}
, 			{
				"name" : "master_style",
				"newobj" : 				{
					"accentcolor" : [ 0.65098, 0.666667, 0.662745, 1.0 ],
					"bgcolor" : [ 1.0, 1.0, 1.0, 1.0 ],
					"textcolor_inverse" : [ 0.0, 0.0, 0.0, 1.0 ]
				}
,
				"attrui" : 				{
					"bgcolor" : [ 0.786675, 0.801885, 0.845022, 1.0 ],
					"textcolor_inverse" : [ 0.0, 0.0, 0.0, 1.0 ]
				}
,
				"button" : 				{
					"bgcolor" : [ 0.682032, 0.698052, 0.748716, 1.0 ],
					"color" : [ 1.0, 0.95051, 0.0, 1.0 ],
					"elementcolor" : [ 0.786675, 0.801885, 0.845022, 1.0 ]
				}
,
				"ezadc~" : 				{
					"bgcolor" : [ 0.65098, 0.666667, 0.662745, 1.0 ],
					"color" : [ 0.0, 0.0, 0.0, 1.0 ],
					"elementcolor" : [ 0.862745, 0.870588, 0.878431, 1.0 ]
				}
,
				"ezdac~" : 				{
					"bgcolor" : [ 0.65098, 0.666667, 0.662745, 1.0 ],
					"color" : [ 0.0, 0.0, 0.0, 1.0 ],
					"elementcolor" : [ 0.862745, 0.870588, 0.878431, 1.0 ]
				}
,
				"function" : 				{
					"bgcolor" : [ 0.65098, 0.666667, 0.662745, 1.0 ],
					"color" : [ 0.0, 0.0, 0.0, 1.0 ]
				}
,
				"multislider" : 				{
					"bgcolor" : [ 1.0, 1.0, 1.0, 1.0 ],
					"color" : [ 0.0, 0.0, 0.0, 1.0 ]
				}
,
				"slider" : 				{
					"bgcolor" : [ 1.0, 1.0, 1.0, 1.0 ],
					"color" : [ 0.461105, 0.492646, 0.591878, 1.0 ],
					"elementcolor" : [ 0.65098, 0.666667, 0.662745, 1.0 ]
				}
,
				"toggle" : 				{
					"bgcolor" : [ 0.682032, 0.698052, 0.748716, 1.0 ],
					"color" : [ 0.0, 0.0, 0.0, 1.0 ],
					"elementcolor" : [ 0.65098, 0.666667, 0.662745, 1.0 ]
				}
,
				"message" : 				{
					"bgfillcolor" : 					{
						"angle" : 270.0,
						"autogradient" : 0,
						"color" : [ 0.290196, 0.309804, 0.301961, 1.0 ],
						"color1" : [ 0.786675, 0.801885, 0.845022, 1.0 ],
						"color2" : [ 0.65098, 0.666667, 0.662745, 1.0 ],
						"proportion" : 0.39,
						"type" : "gradient"
					}
,
					"textcolor_inverse" : [ 0.0, 0.0, 0.0, 1.0 ]
				}
,
				"umenu" : 				{
					"bgfillcolor" : 					{
						"angle" : 270.0,
						"autogradient" : 0,
						"color" : [ 0.290196, 0.309804, 0.301961, 1.0 ],
						"color1" : [ 0.786675, 0.801885, 0.845022, 1.0 ],
						"color2" : [ 0.65098, 0.666667, 0.662745, 1.0 ],
						"proportion" : 0.39,
						"type" : "gradient"
					}

				}
,
				"gain~" : 				{
					"color" : [ 1.0, 0.861448, 0.16921, 1.0 ],
					"elementcolor" : [ 0.65098, 0.666667, 0.662745, 1.0 ]
				}
,
				"kslider" : 				{
					"color" : [ 1.0, 1.0, 1.0, 1.0 ],
					"elementcolor" : [ 0.65098, 0.666667, 0.662745, 1.0 ]
				}
,
				"parentstyle" : "",
				"multi" : 1
			}
, 			{
				"name" : "master_style-1",
				"newobj" : 				{
					"accentcolor" : [ 0.65098, 0.666667, 0.662745, 1.0 ],
					"bgcolor" : [ 1.0, 1.0, 1.0, 1.0 ],
					"textcolor_inverse" : [ 0.0, 0.0, 0.0, 1.0 ]
				}
,
				"attrui" : 				{
					"bgcolor" : [ 0.786675, 0.801885, 0.845022, 1.0 ],
					"textcolor_inverse" : [ 0.0, 0.0, 0.0, 1.0 ]
				}
,
				"button" : 				{
					"bgcolor" : [ 0.682032, 0.698052, 0.748716, 1.0 ],
					"color" : [ 1.0, 0.95051, 0.0, 1.0 ],
					"elementcolor" : [ 0.786675, 0.801885, 0.845022, 1.0 ]
				}
,
				"ezadc~" : 				{
					"bgcolor" : [ 0.65098, 0.666667, 0.662745, 1.0 ],
					"color" : [ 0.0, 0.0, 0.0, 1.0 ],
					"elementcolor" : [ 0.862745, 0.870588, 0.878431, 1.0 ]
				}
,
				"ezdac~" : 				{
					"bgcolor" : [ 0.65098, 0.666667, 0.662745, 1.0 ],
					"color" : [ 0.0, 0.0, 0.0, 1.0 ],
					"elementcolor" : [ 0.862745, 0.870588, 0.878431, 1.0 ]
				}
,
				"function" : 				{
					"bgcolor" : [ 0.65098, 0.666667, 0.662745, 1.0 ],
					"color" : [ 0.0, 0.0, 0.0, 1.0 ]
				}
,
				"multislider" : 				{
					"bgcolor" : [ 1.0, 1.0, 1.0, 1.0 ],
					"color" : [ 0.0, 0.0, 0.0, 1.0 ]
				}
,
				"slider" : 				{
					"bgcolor" : [ 1.0, 1.0, 1.0, 1.0 ],
					"color" : [ 0.461105, 0.492646, 0.591878, 1.0 ],
					"elementcolor" : [ 0.65098, 0.666667, 0.662745, 1.0 ]
				}
,
				"toggle" : 				{
					"bgcolor" : [ 0.682032, 0.698052, 0.748716, 1.0 ],
					"color" : [ 0.0, 0.0, 0.0, 1.0 ],
					"elementcolor" : [ 0.65098, 0.666667, 0.662745, 1.0 ]
				}
,
				"message" : 				{
					"bgfillcolor" : 					{
						"angle" : 270.0,
						"autogradient" : 0.0,
						"color" : [ 0.290196, 0.309804, 0.301961, 1.0 ],
						"color1" : [ 0.786675, 0.801885, 0.845022, 1.0 ],
						"color2" : [ 0.65098, 0.666667, 0.662745, 1.0 ],
						"proportion" : 0.39,
						"type" : "gradient"
					}
,
					"textcolor_inverse" : [ 0.0, 0.0, 0.0, 1.0 ]
				}
,
				"umenu" : 				{
					"bgfillcolor" : 					{
						"angle" : 270.0,
						"autogradient" : 0,
						"color" : [ 0.290196, 0.309804, 0.301961, 1.0 ],
						"color1" : [ 0.786675, 0.801885, 0.845022, 1.0 ],
						"color2" : [ 0.65098, 0.666667, 0.662745, 1.0 ],
						"proportion" : 0.39,
						"type" : "gradient"
					}

				}
,
				"gain~" : 				{
					"color" : [ 1.0, 0.861448, 0.16921, 1.0 ],
					"elementcolor" : [ 0.65098, 0.666667, 0.662745, 1.0 ]
				}
,
				"kslider" : 				{
					"color" : [ 1.0, 1.0, 1.0, 1.0 ],
					"elementcolor" : [ 0.65098, 0.666667, 0.662745, 1.0 ]
				}
,
				"parentstyle" : "",
				"multi" : 0
			}
, 			{
				"name" : "messageGreen-1",
				"default" : 				{
					"bgfillcolor" : 					{
						"angle" : 270.0,
						"autogradient" : 0,
						"color" : [ 0.290196, 0.309804, 0.301961, 1.0 ],
						"color1" : [ 0.165741, 0.364658, 0.14032, 0.74 ],
						"color2" : [ 0.290196, 0.309804, 0.301961, 1.0 ],
						"proportion" : 0.39,
						"type" : "gradient"
					}

				}
,
				"parentstyle" : "",
				"multi" : 0
			}
, 			{
				"name" : "messagegold",
				"default" : 				{
					"bgfillcolor" : 					{
						"angle" : 270.0,
						"autogradient" : 0,
						"color" : [ 0.290196, 0.309804, 0.301961, 1.0 ],
						"color1" : [ 0.764706, 0.592157, 0.101961, 0.74 ],
						"color2" : [ 0.290196, 0.309804, 0.301961, 1.0 ],
						"proportion" : 0.39,
						"type" : "gradient"
					}

				}
,
				"parentstyle" : "",
				"multi" : 0
			}
, 			{
				"name" : "minimal",
				"default" : 				{
					"accentcolor" : [ 0.32549, 0.345098, 0.372549, 1.0 ],
					"bgcolor" : [ 0.878431, 0.878431, 0.858824, 1.0 ],
					"bgfillcolor" : 					{
						"angle" : 270.0,
						"autogradient" : 0,
						"color" : [ 0.65098, 0.65098, 0.65098, 1.0 ],
						"color1" : [ 0.878431, 0.878431, 0.858824, 1.0 ],
						"color2" : [ 0.290196, 0.309804, 0.301961, 1.0 ],
						"proportion" : 0.99,
						"type" : "color"
					}
,
					"color" : [ 0.345098, 0.513725, 0.572549, 0.78 ],
					"elementcolor" : [ 0.32549, 0.345098, 0.372549, 0.44 ],
					"patchlinecolor" : [ 0.65, 0.65, 0.65, 0.9 ],
					"selectioncolor" : [ 0.862745, 0.741176, 0.137255, 0.7 ],
					"textcolor_inverse" : [ 0.0, 0.0, 0.0, 1.0 ]
				}
,
				"parentstyle" : "",
				"multi" : 0
			}
, 			{
				"name" : "multisliderBlue&Yellow",
				"default" : 				{
					"bgcolor" : [ 0.317647, 0.654902, 0.976471, 0.79 ],
					"color" : [ 0.960784, 0.867826, 0.084811, 1.0 ]
				}
,
				"parentstyle" : "",
				"multi" : 0
			}
, 			{
				"name" : "newobjBlue-1",
				"default" : 				{
					"accentcolor" : [ 0.317647, 0.654902, 0.976471, 1.0 ]
				}
,
				"parentstyle" : "",
				"multi" : 0
			}
, 			{
				"name" : "newobjBlue-2",
				"default" : 				{
					"accentcolor" : [ 0.317647, 0.654902, 0.976471, 1.0 ]
				}
,
				"parentstyle" : "",
				"multi" : 0
			}
, 			{
				"name" : "newobjBlue-3",
				"default" : 				{
					"accentcolor" : [ 0.317647, 0.654902, 0.976471, 1.0 ]
				}
,
				"parentstyle" : "",
				"multi" : 0
			}
, 			{
				"name" : "newobjBlue-4",
				"default" : 				{
					"accentcolor" : [ 0.317647, 0.654902, 0.976471, 1.0 ]
				}
,
				"parentstyle" : "",
				"multi" : 0
			}
, 			{
				"name" : "newobjBlue-5",
				"default" : 				{
					"accentcolor" : [ 0.317647, 0.654902, 0.976471, 1.0 ]
				}
,
				"parentstyle" : "",
				"multi" : 0
			}
, 			{
				"name" : "newobjBrown-1",
				"default" : 				{
					"accentcolor" : [ 0.654902, 0.572549, 0.376471, 1.0 ]
				}
,
				"parentstyle" : "",
				"multi" : 0
			}
, 			{
				"name" : "newobjBrown-2",
				"default" : 				{
					"accentcolor" : [ 0.654902, 0.572549, 0.376471, 1.0 ]
				}
,
				"parentstyle" : "",
				"multi" : 0
			}
, 			{
				"name" : "newobjBrown-3",
				"default" : 				{
					"accentcolor" : [ 0.654902, 0.572549, 0.376471, 1.0 ]
				}
,
				"parentstyle" : "",
				"multi" : 0
			}
, 			{
				"name" : "newobjBrown-4",
				"default" : 				{
					"accentcolor" : [ 0.654902, 0.572549, 0.376471, 1.0 ]
				}
,
				"parentstyle" : "",
				"multi" : 0
			}
, 			{
				"name" : "newobjCyan-1",
				"default" : 				{
					"accentcolor" : [ 0.029546, 0.773327, 0.821113, 1.0 ]
				}
,
				"parentstyle" : "",
				"multi" : 0
			}
, 			{
				"name" : "newobjGreen-1",
				"default" : 				{
					"accentcolor" : [ 0.0, 0.533333, 0.168627, 1.0 ]
				}
,
				"parentstyle" : "",
				"multi" : 0
			}
, 			{
				"name" : "newobjGreen-2",
				"default" : 				{
					"accentcolor" : [ 0.0, 0.533333, 0.168627, 1.0 ]
				}
,
				"parentstyle" : "",
				"multi" : 0
			}
, 			{
				"name" : "newobjGreen-3",
				"default" : 				{
					"accentcolor" : [ 0.0, 0.533333, 0.168627, 1.0 ]
				}
,
				"parentstyle" : "",
				"multi" : 0
			}
, 			{
				"name" : "newobjGreen-4",
				"default" : 				{
					"accentcolor" : [ 0.0, 0.533333, 0.168627, 1.0 ]
				}
,
				"parentstyle" : "",
				"multi" : 0
			}
, 			{
				"name" : "newobjGreen-5",
				"default" : 				{
					"accentcolor" : [ 0.0, 0.533333, 0.168627, 1.0 ]
				}
,
				"parentstyle" : "",
				"multi" : 0
			}
, 			{
				"name" : "newobjMagenta-1",
				"default" : 				{
					"accentcolor" : [ 0.840663, 0.060168, 0.769195, 1.0 ]
				}
,
				"parentstyle" : "",
				"multi" : 0
			}
, 			{
				"name" : "newobjYellow-1",
				"default" : 				{
					"accentcolor" : [ 0.82517, 0.78181, 0.059545, 1.0 ],
					"fontsize" : [ 12.059008 ]
				}
,
				"parentstyle" : "",
				"multi" : 0
			}
, 			{
				"name" : "newobjYellow-2",
				"default" : 				{
					"accentcolor" : [ 0.82517, 0.78181, 0.059545, 1.0 ],
					"fontsize" : [ 12.059008 ]
				}
,
				"parentstyle" : "",
				"multi" : 0
			}
, 			{
				"name" : "newobjYellow-3",
				"default" : 				{
					"accentcolor" : [ 0.82517, 0.78181, 0.059545, 1.0 ],
					"fontsize" : [ 12.059008 ]
				}
,
				"parentstyle" : "",
				"multi" : 0
			}
, 			{
				"name" : "newobjYellow-4",
				"default" : 				{
					"accentcolor" : [ 0.82517, 0.78181, 0.059545, 1.0 ],
					"fontsize" : [ 12.059008 ]
				}
,
				"parentstyle" : "",
				"multi" : 0
			}
, 			{
				"name" : "newobjYellow-5",
				"default" : 				{
					"accentcolor" : [ 0.82517, 0.78181, 0.059545, 1.0 ],
					"fontsize" : [ 12.059008 ]
				}
,
				"parentstyle" : "",
				"multi" : 0
			}
, 			{
				"name" : "newobjYellow-6",
				"default" : 				{
					"accentcolor" : [ 0.82517, 0.78181, 0.059545, 1.0 ],
					"fontsize" : [ 12.059008 ]
				}
,
				"parentstyle" : "",
				"multi" : 0
			}
, 			{
				"name" : "numberB-1",
				"default" : 				{
					"accentcolor" : [ 0.011765, 0.396078, 0.752941, 1.0 ]
				}
,
				"parentstyle" : "",
				"multi" : 0
			}
, 			{
				"name" : "numberG-1",
				"default" : 				{
					"accentcolor" : [ 0.0, 0.533333, 0.168627, 1.0 ]
				}
,
				"parentstyle" : "",
				"multi" : 0
			}
, 			{
				"name" : "numberGold-1",
				"default" : 				{
					"accentcolor" : [ 0.764706, 0.592157, 0.101961, 1.0 ]
				}
,
				"parentstyle" : "",
				"multi" : 0
			}
, 			{
				"name" : "numberGold-2",
				"default" : 				{
					"accentcolor" : [ 0.764706, 0.592157, 0.101961, 1.0 ]
				}
,
				"parentstyle" : "",
				"multi" : 0
			}
, 			{
				"name" : "numberGold-3",
				"default" : 				{
					"accentcolor" : [ 0.764706, 0.592157, 0.101961, 1.0 ]
				}
,
				"parentstyle" : "",
				"multi" : 0
			}
, 			{
				"name" : "numberGold-4",
				"default" : 				{
					"accentcolor" : [ 0.764706, 0.592157, 0.101961, 1.0 ]
				}
,
				"parentstyle" : "",
				"multi" : 0
			}
, 			{
				"name" : "numberGold-5",
				"default" : 				{
					"accentcolor" : [ 0.764706, 0.592157, 0.101961, 1.0 ]
				}
,
				"parentstyle" : "",
				"multi" : 0
			}
, 			{
				"name" : "numberR-1",
				"default" : 				{
					"accentcolor" : [ 0.784314, 0.145098, 0.023529, 1.0 ]
				}
,
				"parentstyle" : "",
				"multi" : 0
			}
, 			{
				"name" : "panelViolet",
				"default" : 				{
					"bgfillcolor" : 					{
						"angle" : 270.0,
						"autogradient" : 0,
						"color" : [ 0.372549, 0.196078, 0.486275, 0.2 ],
						"color1" : [ 0.454902, 0.462745, 0.482353, 1.0 ],
						"color2" : [ 0.290196, 0.309804, 0.301961, 1.0 ],
						"proportion" : 0.39,
						"type" : "color"
					}

				}
,
				"parentstyle" : "",
				"multi" : 0
			}
, 			{
				"name" : "rsliderGold",
				"default" : 				{
					"bgcolor" : [ 0.764706, 0.592157, 0.101961, 1.0 ],
					"color" : [ 0.646639, 0.821777, 0.854593, 1.0 ]
				}
,
				"parentstyle" : "",
				"multi" : 0
			}
, 			{
				"name" : "simple",
				"parentstyle" : "",
				"multi" : 0
			}
, 			{
				"name" : "style test",
				"default" : 				{
					"accentcolor" : [ 0.784314, 0.145098, 0.023529, 1.0 ],
					"bgcolor" : [ 0.290196, 0.309804, 0.301961, 1.0 ],
					"color" : [ 0.960784, 0.827451, 0.156863, 1.0 ],
					"elementcolor" : [ 0.784314, 0.145098, 0.023529, 1.0 ]
				}
,
				"parentstyle" : "",
				"multi" : 0
			}
, 			{
				"name" : "texteditGold",
				"default" : 				{
					"bgcolor" : [ 0.764706, 0.592157, 0.101961, 0.68 ],
					"textcolor_inverse" : [ 0.0, 0.0, 0.0, 1.0 ]
				}
,
				"parentstyle" : "",
				"multi" : 0
			}
, 			{
				"name" : "vb green",
				"button" : 				{
					"bgcolor" : [ 0.65098, 0.666667, 0.662745, 1.0 ],
					"color" : [ 0.701961, 0.811765, 0.301961, 1.0 ],
					"elementcolor" : [ 0.862745, 0.870588, 0.878431, 1.0 ]
				}
,
				"textbutton" : 				{
					"bgcolor" : [ 0.701961, 0.811765, 0.301961, 1.0 ],
					"centerjust" : [ 2 ],
					"color" : [ 1.0, 1.0, 1.0, 1.0 ],
					"fontface" : [ 1 ],
					"fontsize" : [ 16.0 ],
					"selectioncolor" : [ 0.701961, 0.811765, 0.301961, 1.0 ]
				}
,
				"panel" : 				{
					"bgfillcolor" : 					{
						"angle" : 270.0,
						"color" : [ 0.647059, 0.666667, 0.658824, 1.0 ],
						"color1" : [ 0.376471, 0.384314, 0.4, 1.0 ],
						"color2" : [ 0.290196, 0.309804, 0.301961, 1.0 ],
						"proportion" : 0.39,
						"type" : "color"
					}

				}
,
				"umenu" : 				{
					"bgfillcolor" : 					{
						"angle" : 270.0,
						"autogradient" : 0,
						"color" : [ 0.862745, 0.870588, 0.878431, 1.0 ],
						"color1" : [ 0.862745, 0.870588, 0.878431, 1.0 ],
						"color2" : [ 0.290196, 0.309804, 0.301961, 1.0 ],
						"proportion" : 0.39,
						"type" : "color"
					}
,
					"color" : [ 0.701961, 0.811765, 0.301961, 1.0 ],
					"elementcolor" : [ 0.701961, 0.811765, 0.301961, 1.0 ],
					"fontface" : [ 1 ],
					"fontsize" : [ 10.0 ],
					"textcolor_inverse" : [ 0.6, 0.6, 0.6, 1.0 ]
				}
,
				"comment" : 				{
					"fontface" : [ 1 ],
					"textcolor" : [ 0.6, 0.6, 0.6, 1.0 ]
				}
,
				"parentstyle" : "",
				"multi" : 1
			}
, 			{
				"name" : "vb pink",
				"textbutton" : 				{
					"bgcolor" : [ 0.956863, 0.666667, 0.92549, 1.0 ],
					"selectioncolor" : [ 0.956863, 0.666667, 0.92549, 1.0 ]
				}
,
				"button" : 				{
					"color" : [ 0.956863, 0.666667, 0.92549, 1.0 ]
				}
,
				"umenu" : 				{
					"color" : [ 0.956863, 0.666667, 0.92549, 1.0 ]
				}
,
				"parentstyle" : "vb purple",
				"multi" : 1
			}
, 			{
				"name" : "vb pink-1",
				"textbutton" : 				{
					"bgcolor" : [ 0.956863, 0.666667, 0.92549, 1.0 ],
					"selectioncolor" : [ 0.956863, 0.666667, 0.92549, 1.0 ]
				}
,
				"button" : 				{
					"color" : [ 0.956863, 0.666667, 0.92549, 1.0 ]
				}
,
				"umenu" : 				{
					"color" : [ 0.956863, 0.666667, 0.92549, 1.0 ]
				}
,
				"parentstyle" : "",
				"multi" : 0
			}
, 			{
				"name" : "vb purple",
				"button" : 				{
					"bgcolor" : [ 0.65098, 0.666667, 0.662745, 1.0 ],
					"color" : [ 0.54902, 0.584314, 0.705882, 1.0 ],
					"elementcolor" : [ 0.862745, 0.870588, 0.878431, 1.0 ]
				}
,
				"textbutton" : 				{
					"bgcolor" : [ 0.54902, 0.584314, 0.705882, 1.0 ],
					"centerjust" : [ 2 ],
					"color" : [ 1.0, 1.0, 1.0, 1.0 ],
					"fontface" : [ 1 ],
					"fontsize" : [ 16.0 ],
					"selectioncolor" : [ 0.54902, 0.584314, 0.705882, 1.0 ]
				}
,
				"panel" : 				{
					"bgfillcolor" : 					{
						"angle" : 270.0,
						"color" : [ 0.647059, 0.666667, 0.658824, 1.0 ],
						"color1" : [ 0.376471, 0.384314, 0.4, 1.0 ],
						"color2" : [ 0.290196, 0.309804, 0.301961, 1.0 ],
						"proportion" : 0.39,
						"type" : "color"
					}

				}
,
				"umenu" : 				{
					"bgfillcolor" : 					{
						"angle" : 270.0,
						"autogradient" : 0,
						"color" : [ 0.862745, 0.870588, 0.878431, 1.0 ],
						"color1" : [ 0.862745, 0.870588, 0.878431, 1.0 ],
						"color2" : [ 0.290196, 0.309804, 0.301961, 1.0 ],
						"proportion" : 0.39,
						"type" : "color"
					}
,
					"color" : [ 0.54902, 0.584314, 0.705882, 1.0 ],
					"elementcolor" : [ 0.54902, 0.584314, 0.705882, 1.0 ],
					"fontface" : [ 1 ],
					"fontsize" : [ 10.0 ],
					"textcolor_inverse" : [ 0.6, 0.6, 0.6, 1.0 ]
				}
,
				"comment" : 				{
					"fontface" : [ 1 ],
					"textcolor" : [ 0.6, 0.6, 0.6, 1.0 ]
				}
,
				"parentstyle" : "",
				"multi" : 1
			}
, 			{
				"name" : "vb purple-1",
				"button" : 				{
					"bgcolor" : [ 0.65098, 0.666667, 0.662745, 1.0 ],
					"color" : [ 0.54902, 0.584314, 0.705882, 1.0 ],
					"elementcolor" : [ 0.862745, 0.870588, 0.878431, 1.0 ]
				}
,
				"textbutton" : 				{
					"bgcolor" : [ 0.54902, 0.584314, 0.705882, 1.0 ],
					"centerjust" : [ 2 ],
					"color" : [ 1.0, 1.0, 1.0, 1.0 ],
					"fontface" : [ 1 ],
					"fontsize" : [ 16.0 ],
					"selectioncolor" : [ 0.54902, 0.584314, 0.705882, 1.0 ]
				}
,
				"panel" : 				{
					"bgfillcolor" : 					{
						"angle" : 270.0,
						"color" : [ 0.647059, 0.666667, 0.658824, 1.0 ],
						"color1" : [ 0.376471, 0.384314, 0.4, 1.0 ],
						"color2" : [ 0.290196, 0.309804, 0.301961, 1.0 ],
						"proportion" : 0.39,
						"type" : "color"
					}

				}
,
				"umenu" : 				{
					"bgfillcolor" : 					{
						"angle" : 270.0,
						"autogradient" : 0,
						"color" : [ 0.862745, 0.870588, 0.878431, 1.0 ],
						"color1" : [ 0.862745, 0.870588, 0.878431, 1.0 ],
						"color2" : [ 0.290196, 0.309804, 0.301961, 1.0 ],
						"proportion" : 0.39,
						"type" : "color"
					}
,
					"color" : [ 0.54902, 0.584314, 0.705882, 1.0 ],
					"elementcolor" : [ 0.54902, 0.584314, 0.705882, 1.0 ],
					"fontface" : [ 1 ],
					"fontsize" : [ 10.0 ],
					"textcolor_inverse" : [ 0.6, 0.6, 0.6, 1.0 ]
				}
,
				"comment" : 				{
					"fontface" : [ 1 ],
					"textcolor" : [ 0.6, 0.6, 0.6, 1.0 ]
				}
,
				"parentstyle" : "",
				"multi" : 0
			}
, 			{
				"name" : "vbio",
				"parentstyle" : "",
				"multi" : 0
			}
, 			{
				"name" : "vs_comment",
				"default" : 				{
					"clearcolor" : [ 0.0, 0.0, 0.0, 1.0 ],
					"textcolor" : [ 1.0, 0.709804, 0.196078, 1.0 ]
				}
,
				"parentstyle" : "",
				"multi" : 0
			}
, 			{
				"name" : "vs_patcher_background",
				"default" : 				{
					"editing_bgcolor" : [ 0.2431372549, 0.2431372549, 0.2431372549, 1.0 ],
					"locked_bgcolor" : [ 0.2431372549, 0.2431372549, 0.2431372549, 1.0 ]
				}
,
				"parentstyle" : "",
				"multi" : 0
			}
 ],
		"toolbaradditions" : [ "browsegenjit", "browsegendsp" ],
		"toolbarexclusions" : [ "browsecollections", "browser_plugin", "packagemanager", "calendar", "other", "number", "toggle", "comment" ],
		"default_bgcolor" : [ 0.878431, 0.878431, 0.858824, 1.0 ],
		"color" : [ 0.345098, 0.513725, 0.572549, 0.78 ],
		"elementcolor" : [ 0.32549, 0.345098, 0.372549, 0.44 ],
		"accentcolor" : [ 0.32549, 0.345098, 0.372549, 1.0 ],
		"selectioncolor" : [ 0.862745, 0.741176, 0.137255, 0.7 ],
		"textcolor_inverse" : [ 0.0, 0.0, 0.0, 1.0 ],
		"bgcolor" : [ 0.764705882352941, 0.764705882352941, 0.764705882352941, 1.0 ],
		"editing_bgcolor" : [ 0.6509803922, 0.65098, 0.65098, 1.0 ],
		"bgfillcolor_type" : "color",
		"bgfillcolor_color1" : [ 0.878431, 0.878431, 0.858824, 1.0 ],
		"bgfillcolor_color2" : [ 0.290196, 0.309804, 0.301961, 1.0 ],
		"bgfillcolor_color" : [ 0.65098, 0.65098, 0.65098, 1.0 ]
	}

}
