{
	"patcher" : 	{
		"fileversion" : 1,
		"appversion" : 		{
			"major" : 8,
			"minor" : 5,
			"revision" : 6,
			"architecture" : "x64",
			"modernui" : 1
		}
,
		"classnamespace" : "box",
		"rect" : [ 0.0, 66.0, 756.0, 491.0 ],
		"bglocked" : 0,
		"openinpresentation" : 0,
		"default_fontsize" : 12.0,
		"default_fontface" : 0,
		"default_fontname" : "Arial",
		"gridonopen" : 2,
		"gridsize" : [ 15.0, 15.0 ],
		"gridsnaponopen" : 1,
		"objectsnaponopen" : 1,
		"statusbarvisible" : 2,
		"toolbarvisible" : 0,
		"lefttoolbarpinned" : 0,
		"toptoolbarpinned" : 0,
		"righttoolbarpinned" : 0,
		"bottomtoolbarpinned" : 0,
		"toolbars_unpinned_last_save" : 0,
		"tallnewobj" : 0,
		"boxanimatetime" : 200,
		"enablehscroll" : 1,
		"enablevscroll" : 1,
		"devicewidth" : 0.0,
		"description" : "",
		"digest" : "",
		"tags" : "",
		"style" : "vs_patcher_background",
		"subpatcher_template" : "",
		"assistshowspatchername" : 0,
		"boxes" : [ 			{
				"box" : 				{
					"hidden" : 1,
					"id" : "obj-12",
					"maxclass" : "newobj",
					"numinlets" : 1,
					"numoutlets" : 1,
					"outlettype" : [ "" ],
					"patching_rect" : [ 866.0, 170.0, 54.0, 22.0 ],
					"text" : "deferlow"
				}

			}
, 			{
				"box" : 				{
					"hidden" : 1,
					"id" : "obj-16",
					"maxclass" : "message",
					"numinlets" : 2,
					"numoutlets" : 1,
					"outlettype" : [ "" ],
					"patching_rect" : [ -119.0, 31.769226000000003, 141.0, 22.0 ],
					"text" : "read vs_lenticular.json"
				}

			}
, 			{
				"box" : 				{
					"hidden" : 1,
					"id" : "obj-15",
					"linecount" : 4,
					"maxclass" : "message",
					"numinlets" : 2,
					"numoutlets" : 1,
					"outlettype" : [ "" ],
					"patching_rect" : [ 631.0, 96.0, 41.0, 62.0 ],
					"text" : "waveform 4, pw 15"
				}

			}
, 			{
				"box" : 				{
					"id" : "obj-7",
					"maxclass" : "comment",
					"numinlets" : 1,
					"numoutlets" : 0,
					"patching_rect" : [ 6.0, 7.0, 743.0, 20.0 ],
					"style" : "vs_comment",
					"text" : "This is a Barrier-Grid Animation or Kinegram reader. It can be achieved tuning correctly a square-wave oscillator.",
					"textcolor" : [ 0.694117647058824, 0.694117647058824, 0.694117647058824, 1.0 ]
				}

			}
, 			{
				"box" : 				{
					"hidden" : 1,
					"id" : "obj-26",
					"maxclass" : "message",
					"numinlets" : 2,
					"numoutlets" : 1,
					"outlettype" : [ "" ],
					"patching_rect" : [ 673.0, 132.0, 32.0, 22.0 ],
					"text" : "op 3"
				}

			}
, 			{
				"box" : 				{
					"id" : "obj-18",
					"maxclass" : "comment",
					"numinlets" : 1,
					"numoutlets" : 0,
					"patching_rect" : [ 207.0, 108.769226000000003, 150.0, 20.0 ],
					"style" : "vs_comment",
					"text" : "<< Load your own images!",
					"textcolor" : [ 0.952941176470588, 0.564705882352941, 0.098039215686275, 1.0 ]
				}

			}
, 			{
				"box" : 				{
					"id" : "obj-17",
					"maxclass" : "comment",
					"numinlets" : 1,
					"numoutlets" : 0,
					"patching_rect" : [ 152.0, 52.769226000000003, 418.0, 20.0 ],
					"style" : "vs_comment",
					"text" : "1) Select the different images, they will automatically adjust WFG_2 settings.",
					"textcolor" : [ 0.952941176470588, 0.564705882352941, 0.098039215686275, 1.0 ]
				}

			}
, 			{
				"box" : 				{
					"hidden" : 1,
					"id" : "obj-13",
					"maxclass" : "message",
					"numinlets" : 2,
					"numoutlets" : 1,
					"outlettype" : [ "" ],
					"patching_rect" : [ 272.0, 435.0, 61.0, 22.0 ],
					"text" : "enable $1"
				}

			}
, 			{
				"box" : 				{
					"hidden" : 1,
					"id" : "obj-11",
					"maxclass" : "newobj",
					"numinlets" : 1,
					"numoutlets" : 1,
					"outlettype" : [ "int" ],
					"patching_rect" : [ 272.0, 397.0, 40.0, 22.0 ],
					"text" : "active"
				}

			}
, 			{
				"box" : 				{
					"hidden" : 1,
					"id" : "obj-10",
					"maxclass" : "newobj",
					"numinlets" : 1,
					"numoutlets" : 1,
					"outlettype" : [ "bang" ],
					"patching_rect" : [ 877.0, 70.769226000000003, 58.0, 22.0 ],
					"text" : "loadbang"
				}

			}
, 			{
				"box" : 				{
					"hidden" : 1,
					"id" : "obj-9",
					"maxclass" : "message",
					"numinlets" : 2,
					"numoutlets" : 1,
					"outlettype" : [ "" ],
					"patching_rect" : [ 728.0, 46.0, 59.0, 22.0 ],
					"text" : "lockdown"
				}

			}
, 			{
				"box" : 				{
					"hidden" : 1,
					"id" : "obj-6",
					"maxclass" : "newobj",
					"numinlets" : 1,
					"numoutlets" : 2,
					"outlettype" : [ "", "" ],
					"patching_rect" : [ 732.0, 115.769226000000003, 67.0, 22.0 ],
					"save" : [ "#N", "thispatcher", ";", "#Q", "end", ";" ],
					"text" : "thispatcher"
				}

			}
, 			{
				"box" : 				{
					"bgcolor" : [ 0.290196078431373, 0.290196078431373, 0.290196078431373, 1.0 ],
					"bgcolor2" : [ 0.290196078431373, 0.290196078431373, 0.290196078431373, 1.0 ],
					"bgfillcolor_angle" : 270.0,
					"bgfillcolor_autogradient" : 0.0,
					"bgfillcolor_color" : [ 0.1803919971, 0.5529410243, 0.6627449989, 1.0 ],
					"bgfillcolor_color1" : [ 0.290196078431373, 0.290196078431373, 0.290196078431373, 1.0 ],
					"bgfillcolor_color2" : [ 0.2, 0.2, 0.2, 1.0 ],
					"bgfillcolor_proportion" : 0.5,
					"bgfillcolor_type" : "color",
					"gradient" : 1,
					"id" : "obj-4",
					"maxclass" : "message",
					"numinlets" : 2,
					"numoutlets" : 1,
					"outlettype" : [ "" ],
					"patching_rect" : [ 170.0, 107.769226000000003, 33.0, 22.0 ],
					"text" : "read",
					"textcolor" : [ 0.0, 0.0, 0.0, 1.0 ]
				}

			}
, 			{
				"box" : 				{
					"hidden" : 1,
					"id" : "obj-1",
					"maxclass" : "newobj",
					"numinlets" : 2,
					"numoutlets" : 1,
					"outlettype" : [ "int" ],
					"patching_rect" : [ 30.5, 17.0, 29.5, 22.0 ],
					"text" : "1"
				}

			}
, 			{
				"box" : 				{
					"hidden" : 1,
					"id" : "obj-46",
					"maxclass" : "newobj",
					"numinlets" : 2,
					"numoutlets" : 1,
					"outlettype" : [ "int" ],
					"patching_rect" : [ -110.0, 70.769226000000003, 29.5, 22.0 ],
					"text" : "+ 1"
				}

			}
, 			{
				"box" : 				{
					"bgcolor" : [ 0.876446425914764, 0.876420140266418, 0.876435101032257, 1.0 ],
					"id" : "obj-38",
					"maxclass" : "newobj",
					"numinlets" : 1,
					"numoutlets" : 1,
					"outlettype" : [ "" ],
					"patching_rect" : [ 79.0, 107.769226000000003, 82.0, 22.0 ],
					"text" : "prepend read",
					"textcolor" : [ 0.0, 0.0, 0.0, 1.0 ]
				}

			}
, 			{
				"box" : 				{
					"allowdrag" : 0,
					"autopopulate" : 1,
					"bgcolor" : [ 0.1803919971, 0.5529410243, 0.6627449989, 1.0 ],
					"bgfillcolor_angle" : 270.0,
					"bgfillcolor_autogradient" : 0.0,
					"bgfillcolor_color" : [ 0.1803919971, 0.5529410243, 0.6627449989, 1.0 ],
					"bgfillcolor_color1" : [ 0.301961, 0.301961, 0.301961, 1.0 ],
					"bgfillcolor_color2" : [ 0.2, 0.2, 0.2, 1.0 ],
					"bgfillcolor_proportion" : 0.5,
					"bgfillcolor_type" : "color",
					"id" : "obj-71",
					"items" : [ "cardumen.jpg", ",", "cat.jpg", ",", "colibri.jpg", ",", "dancingman.jpg", ",", "dino.jpg", ",", "helicopter.jpg", ",", "mario.jpg", ",", "muybridge.jpg", ",", "pacman.jpg", ",", "phrase.jpg", ",", "skull.jpg" ],
					"maxclass" : "umenu",
					"numinlets" : 1,
					"numoutlets" : 3,
					"outlettype" : [ "int", "", "" ],
					"parameter_enable" : 0,
					"patching_rect" : [ 30.5, 50.769226000000003, 116.0, 22.0 ],
					"textcolor" : [ 0.0, 0.0, 0.0, 1.0 ],
					"varname" : "umenu"
				}

			}
, 			{
				"box" : 				{
					"id" : "obj-29",
					"linecount" : 2,
					"maxclass" : "comment",
					"numinlets" : 1,
					"numoutlets" : 0,
					"patching_rect" : [ 535.0, 263.457160765472395, 208.0, 33.0 ],
					"style" : "vs_comment",
					"text" : "<< Find the correct Frequency to give the illusion of movement! ",
					"textcolor" : [ 0.952941176470588, 0.564705882352941, 0.098039215686275, 1.0 ]
				}

			}
, 			{
				"box" : 				{
					"active" : 					{
						"vs_op2" : 0,
						"vs_op2::u010003129" : 0,
						"vs_op2::op2_op" : 0,
						"vs_wfg_2::wfg2_pw" : 0
					}
,
					"autorestore" : "vs_lenticular.json",
					"hidden" : 1,
					"id" : "obj-24",
					"maxclass" : "newobj",
					"numinlets" : 1,
					"numoutlets" : 1,
					"outlettype" : [ "" ],
					"patching_rect" : [ -119.0, 142.0, 126.0, 22.0 ],
					"priority" : 					{
						"vs_wfg_2::wfg2_freq_range" : -1,
						"vs_wfg_2::wfg2_fm_range" : -1,
						"vs_wfg_2::wfg2_pm_range" : -1
					}
,
					"saved_object_attributes" : 					{
						"client_rect" : [ 897, 56, 1280, 418 ],
						"parameter_enable" : 0,
						"parameter_mappable" : 0,
						"storage_rect" : [ 583, 69, 1034, 197 ]
					}
,
					"text" : "pattrstorage lenticular",
					"varname" : "lenticular"
				}

			}
, 			{
				"box" : 				{
					"autofit" : 1,
					"forceaspect" : 1,
					"id" : "obj-23",
					"maxclass" : "fpic",
					"numinlets" : 1,
					"numoutlets" : 1,
					"outlettype" : [ "jit_matrix" ],
					"patching_rect" : [ 28.0, 169.781265000000019, 193.0, 144.75 ],
					"pic" : "colibri.jpg"
				}

			}
, 			{
				"box" : 				{
					"bgmode" : 1,
					"border" : 0,
					"clickthrough" : 0,
					"enablehscroll" : 0,
					"enablevscroll" : 0,
					"id" : "obj-5",
					"lockeddragscroll" : 0,
					"lockedsize" : 0,
					"maxclass" : "bpatcher",
					"name" : "vs_wfg_2.maxpat",
					"numinlets" : 3,
					"numoutlets" : 2,
					"offset" : [ 0.0, 0.0 ],
					"outlettype" : [ "", "" ],
					"patching_rect" : [ 239.0, 197.457160765472338, 277.0, 99.0 ],
					"varname" : "vs_wfg_2",
					"viewvisibility" : 1
				}

			}
, 			{
				"box" : 				{
					"bgmode" : 1,
					"border" : 0,
					"clickthrough" : 0,
					"enablehscroll" : 0,
					"enablevscroll" : 0,
					"id" : "obj-8",
					"lockeddragscroll" : 0,
					"lockedsize" : 0,
					"maxclass" : "bpatcher",
					"name" : "vs_output.maxpat",
					"numinlets" : 1,
					"numoutlets" : 0,
					"offset" : [ 0.0, 0.0 ],
					"patching_rect" : [ 28.0, 450.0, 160.0, 23.0 ],
					"varname" : "vs_output",
					"viewvisibility" : 1
				}

			}
, 			{
				"box" : 				{
					"bgcolor" : [ 0.876446425914764, 0.876420140266418, 0.876435101032257, 1.0 ],
					"id" : "obj-2",
					"maxclass" : "newobj",
					"numinlets" : 0,
					"numoutlets" : 1,
					"outlettype" : [ "" ],
					"patching_rect" : [ 28.0, 107.769226000000003, 42.0, 22.0 ],
					"text" : "r draw",
					"textcolor" : [ 0.0, 0.0, 0.0, 1.0 ]
				}

			}
, 			{
				"box" : 				{
					"bgmode" : 1,
					"border" : 0,
					"clickthrough" : 0,
					"enablehscroll" : 0,
					"enablevscroll" : 0,
					"id" : "obj-14",
					"lockeddragscroll" : 0,
					"lockedsize" : 0,
					"maxclass" : "bpatcher",
					"name" : "vs_op2.maxpat",
					"numinlets" : 2,
					"numoutlets" : 1,
					"offset" : [ 0.0, 0.0 ],
					"outlettype" : [ "jit_gl_texture" ],
					"patching_rect" : [ 28.0, 367.0, 51.0, 39.0 ],
					"varname" : "vs_op2",
					"viewvisibility" : 1
				}

			}
 ],
		"lines" : [ 			{
				"patchline" : 				{
					"destination" : [ "obj-71", 0 ],
					"hidden" : 1,
					"source" : [ "obj-1", 0 ]
				}

			}
, 			{
				"patchline" : 				{
					"destination" : [ "obj-12", 0 ],
					"hidden" : 1,
					"order" : 0,
					"source" : [ "obj-10", 0 ]
				}

			}
, 			{
				"patchline" : 				{
					"destination" : [ "obj-9", 0 ],
					"hidden" : 1,
					"order" : 1,
					"source" : [ "obj-10", 0 ]
				}

			}
, 			{
				"patchline" : 				{
					"destination" : [ "obj-13", 0 ],
					"hidden" : 1,
					"source" : [ "obj-11", 0 ]
				}

			}
, 			{
				"patchline" : 				{
					"destination" : [ "obj-1", 0 ],
					"hidden" : 1,
					"order" : 2,
					"source" : [ "obj-12", 0 ]
				}

			}
, 			{
				"patchline" : 				{
					"destination" : [ "obj-15", 0 ],
					"hidden" : 1,
					"order" : 1,
					"source" : [ "obj-12", 0 ]
				}

			}
, 			{
				"patchline" : 				{
					"destination" : [ "obj-16", 0 ],
					"hidden" : 1,
					"order" : 3,
					"source" : [ "obj-12", 0 ]
				}

			}
, 			{
				"patchline" : 				{
					"destination" : [ "obj-26", 0 ],
					"hidden" : 1,
					"order" : 0,
					"source" : [ "obj-12", 0 ]
				}

			}
, 			{
				"patchline" : 				{
					"destination" : [ "obj-14", 0 ],
					"hidden" : 1,
					"order" : 2,
					"source" : [ "obj-13", 0 ]
				}

			}
, 			{
				"patchline" : 				{
					"destination" : [ "obj-5", 0 ],
					"hidden" : 1,
					"order" : 1,
					"source" : [ "obj-13", 0 ]
				}

			}
, 			{
				"patchline" : 				{
					"destination" : [ "obj-8", 0 ],
					"hidden" : 1,
					"order" : 0,
					"source" : [ "obj-13", 0 ]
				}

			}
, 			{
				"patchline" : 				{
					"destination" : [ "obj-8", 0 ],
					"source" : [ "obj-14", 0 ]
				}

			}
, 			{
				"patchline" : 				{
					"destination" : [ "obj-5", 0 ],
					"hidden" : 1,
					"source" : [ "obj-15", 0 ]
				}

			}
, 			{
				"patchline" : 				{
					"destination" : [ "obj-24", 0 ],
					"hidden" : 1,
					"source" : [ "obj-16", 0 ]
				}

			}
, 			{
				"patchline" : 				{
					"destination" : [ "obj-23", 0 ],
					"source" : [ "obj-2", 0 ]
				}

			}
, 			{
				"patchline" : 				{
					"destination" : [ "obj-14", 0 ],
					"source" : [ "obj-23", 0 ]
				}

			}
, 			{
				"patchline" : 				{
					"destination" : [ "obj-14", 0 ],
					"hidden" : 1,
					"source" : [ "obj-26", 0 ]
				}

			}
, 			{
				"patchline" : 				{
					"destination" : [ "obj-23", 0 ],
					"source" : [ "obj-38", 0 ]
				}

			}
, 			{
				"patchline" : 				{
					"destination" : [ "obj-23", 0 ],
					"source" : [ "obj-4", 0 ]
				}

			}
, 			{
				"patchline" : 				{
					"destination" : [ "obj-24", 0 ],
					"hidden" : 1,
					"source" : [ "obj-46", 0 ]
				}

			}
, 			{
				"patchline" : 				{
					"destination" : [ "obj-14", 1 ],
					"midpoints" : [ 248.5, 339.0, 69.5, 339.0 ],
					"source" : [ "obj-5", 0 ]
				}

			}
, 			{
				"patchline" : 				{
					"destination" : [ "obj-38", 0 ],
					"source" : [ "obj-71", 1 ]
				}

			}
, 			{
				"patchline" : 				{
					"destination" : [ "obj-46", 0 ],
					"hidden" : 1,
					"midpoints" : [ 40.0, 101.0, -29.0, 101.0, -29.0, 50.0, -100.5, 50.0 ],
					"source" : [ "obj-71", 0 ]
				}

			}
, 			{
				"patchline" : 				{
					"destination" : [ "obj-6", 0 ],
					"hidden" : 1,
					"source" : [ "obj-9", 0 ]
				}

			}
 ],
		"parameters" : 		{
			"obj-14::obj-18" : [ "op2_op", "live.menu", 0 ],
			"obj-5::obj-10" : [ "wfg2_pm", "pm", 0 ],
			"obj-5::obj-13" : [ "wfg2_freq_range", "scale_freq", 0 ],
			"obj-5::obj-130" : [ "wfg2_time", "time", 0 ],
			"obj-5::obj-139" : [ "wfg2_sync_lock", "sync_pos", 0 ],
			"obj-5::obj-23" : [ "wfg2_pwm", "pwm", 0 ],
			"obj-5::obj-24" : [ "wfg2_pw", "pw", 0 ],
			"obj-5::obj-25" : [ "wfg2_fm", "fm", 0 ],
			"obj-5::obj-26" : [ "wfg2_freq", "freq", 0 ],
			"obj-5::obj-27" : [ "wfg2_wf", "waveform", 0 ],
			"obj-5::obj-28" : [ "live.toggle[2]", "live.toggle[1]", 0 ],
			"obj-5::obj-6" : [ "wfg2_fm_range", "scale_freq_fm", 0 ],
			"obj-5::obj-63" : [ "wfg2_phase", "Phase", 0 ],
			"obj-5::obj-72" : [ "wfg2_phase_time_switch", "wfg2_phase_time_switch", 0 ],
			"obj-5::obj-73" : [ "wfg2_time_range", "wfg2_time_range", 0 ],
			"obj-8::obj-1" : [ "toggle", "toggle", 0 ],
			"obj-8::obj-10" : [ "toggle[2]", "toggle[2]", 0 ],
			"obj-8::obj-36" : [ "uppr_x", "uppr_x", 0 ],
			"parameterbanks" : 			{

			}
,
			"parameter_overrides" : 			{
				"obj-5::obj-10" : 				{
					"parameter_range" : [ -1.0, 1.0 ],
					"parameter_shortname" : "pm"
				}
,
				"obj-5::obj-13" : 				{
					"parameter_longname" : "wfg2_freq_range",
					"parameter_shortname" : "scale_freq"
				}
,
				"obj-5::obj-130" : 				{
					"parameter_shortname" : "time"
				}
,
				"obj-5::obj-139" : 				{
					"parameter_longname" : "wfg2_sync_lock",
					"parameter_shortname" : "sync_pos"
				}
,
				"obj-5::obj-23" : 				{
					"parameter_shortname" : "pwm"
				}
,
				"obj-5::obj-24" : 				{
					"parameter_shortname" : "pw"
				}
,
				"obj-5::obj-25" : 				{
					"parameter_range" : [ -1.0, 1.0 ],
					"parameter_shortname" : "fm"
				}
,
				"obj-5::obj-26" : 				{
					"parameter_range" : [ 0.0, 1020.0 ],
					"parameter_shortname" : "freq"
				}
,
				"obj-5::obj-27" : 				{
					"parameter_longname" : "wfg2_wf",
					"parameter_shortname" : "waveform"
				}
,
				"obj-5::obj-6" : 				{
					"parameter_longname" : "wfg2_fm_range",
					"parameter_shortname" : "scale_freq_fm"
				}

			}
,
			"inherited_shortname" : 1
		}
,
		"dependency_cache" : [ 			{
				"name" : "colibri.jpg",
				"bootpath" : "~/Documents/Max 8/Packages/Vsynth/media",
				"patcherrelativepath" : "../../media",
				"type" : "JPEG",
				"implicit" : 1
			}
, 			{
				"name" : "down.svg",
				"bootpath" : "C74:/media/max/picts/m4l-picts",
				"type" : "svg",
				"implicit" : 1
			}
, 			{
				"name" : "moduleSize.js",
				"bootpath" : "~/Documents/Max 8/Packages/Vsynth/javascript",
				"patcherrelativepath" : "../../javascript",
				"type" : "TEXT",
				"implicit" : 1
			}
, 			{
				"name" : "noise2.svg",
				"bootpath" : "~/Documents/Max 8/Packages/Vsynth/media",
				"patcherrelativepath" : "../../media",
				"type" : "svg",
				"implicit" : 1
			}
, 			{
				"name" : "saw.svg",
				"bootpath" : "C74:/media/max/picts/m4l-picts",
				"type" : "svg",
				"implicit" : 1
			}
, 			{
				"name" : "sine.svg",
				"bootpath" : "C74:/media/max/picts/m4l-picts",
				"type" : "svg",
				"implicit" : 1
			}
, 			{
				"name" : "square.svg",
				"bootpath" : "C74:/media/max/picts/m4l-picts",
				"type" : "svg",
				"implicit" : 1
			}
, 			{
				"name" : "up.svg",
				"bootpath" : "C74:/media/max/picts/m4l-picts",
				"type" : "svg",
				"implicit" : 1
			}
, 			{
				"name" : "vs_lenticular.json",
				"bootpath" : "~/Documents/Max 8/Packages/Vsynth/patchers/launcher_help",
				"patcherrelativepath" : ".",
				"type" : "JSON",
				"implicit" : 1
			}
, 			{
				"name" : "vs_op2.maxpat",
				"bootpath" : "~/Documents/Max 8/Packages/Vsynth/patchers",
				"patcherrelativepath" : "..",
				"type" : "JSON",
				"implicit" : 1
			}
, 			{
				"name" : "vs_op2pass.genjit",
				"bootpath" : "~/Documents/Max 8/Packages/Vsynth/code",
				"patcherrelativepath" : "../../code",
				"type" : "gJIT",
				"implicit" : 1
			}
, 			{
				"name" : "vs_output.maxpat",
				"bootpath" : "~/Documents/Max 8/Packages/Vsynth/patchers",
				"patcherrelativepath" : "..",
				"type" : "JSON",
				"implicit" : 1
			}
, 			{
				"name" : "vs_wfg_2.maxpat",
				"bootpath" : "~/Documents/Max 8/Packages/Vsynth/patchers",
				"patcherrelativepath" : "..",
				"type" : "JSON",
				"implicit" : 1
			}
, 			{
				"name" : "vs_wfg_sine.genjit",
				"bootpath" : "~/Documents/Max 8/Packages/Vsynth/code",
				"patcherrelativepath" : "../../code",
				"type" : "gJIT",
				"implicit" : 1
			}
 ],
		"autosave" : 0,
		"styles" : [ 			{
				"name" : "minimal",
				"default" : 				{
					"accentcolor" : [ 0.32549, 0.345098, 0.372549, 1.0 ],
					"bgcolor" : [ 0.878431, 0.878431, 0.858824, 1.0 ],
					"bgfillcolor" : 					{
						"angle" : 270.0,
						"autogradient" : 0,
						"color" : [ 0.65098, 0.65098, 0.65098, 1.0 ],
						"color1" : [ 0.878431, 0.878431, 0.858824, 1.0 ],
						"color2" : [ 0.290196, 0.309804, 0.301961, 1.0 ],
						"proportion" : 0.99,
						"type" : "color"
					}
,
					"color" : [ 0.345098, 0.513725, 0.572549, 0.78 ],
					"elementcolor" : [ 0.32549, 0.345098, 0.372549, 0.44 ],
					"patchlinecolor" : [ 0.65, 0.65, 0.65, 0.9 ],
					"selectioncolor" : [ 0.862745, 0.741176, 0.137255, 0.7 ],
					"textcolor_inverse" : [ 0.0, 0.0, 0.0, 1.0 ]
				}
,
				"parentstyle" : "",
				"multi" : 0
			}
, 			{
				"name" : "vs_comment",
				"default" : 				{
					"clearcolor" : [ 0.0, 0.0, 0.0, 1.0 ],
					"textcolor" : [ 1.0, 0.709804, 0.196078, 1.0 ]
				}
,
				"parentstyle" : "",
				"multi" : 0
			}
, 			{
				"name" : "vs_patcher_background",
				"default" : 				{
					"editing_bgcolor" : [ 0.2431372549, 0.2431372549, 0.2431372549, 1.0 ],
					"locked_bgcolor" : [ 0.2431372549, 0.2431372549, 0.2431372549, 1.0 ]
				}
,
				"parentstyle" : "",
				"multi" : 0
			}
 ]
	}

}
