{
	"patcher" : 	{
		"fileversion" : 1,
		"appversion" : 		{
			"major" : 8,
			"minor" : 5,
			"revision" : 6,
			"architecture" : "x64",
			"modernui" : 1
		}
,
		"classnamespace" : "box",
		"rect" : [ 34.0, 66.0, 974.0, 604.0 ],
		"bglocked" : 0,
		"openinpresentation" : 0,
		"default_fontsize" : 12.0,
		"default_fontface" : 0,
		"default_fontname" : "Arial",
		"gridonopen" : 1,
		"gridsize" : [ 15.0, 15.0 ],
		"gridsnaponopen" : 1,
		"objectsnaponopen" : 1,
		"statusbarvisible" : 2,
		"toolbarvisible" : 0,
		"lefttoolbarpinned" : 0,
		"toptoolbarpinned" : 0,
		"righttoolbarpinned" : 0,
		"bottomtoolbarpinned" : 0,
		"toolbars_unpinned_last_save" : 0,
		"tallnewobj" : 0,
		"boxanimatetime" : 200,
		"enablehscroll" : 1,
		"enablevscroll" : 1,
		"devicewidth" : 0.0,
		"description" : "",
		"digest" : "",
		"tags" : "",
		"style" : "",
		"subpatcher_template" : "",
		"assistshowspatchername" : 0,
		"boxes" : [ 			{
				"box" : 				{
					"bgmode" : 1,
					"border" : 0,
					"clickthrough" : 0,
					"enablehscroll" : 0,
					"enablevscroll" : 0,
					"id" : "obj-6",
					"lockeddragscroll" : 0,
					"lockedsize" : 0,
					"maxclass" : "bpatcher",
					"name" : "vs_output.maxpat",
					"numinlets" : 1,
					"numoutlets" : 0,
					"offset" : [ 0.0, 0.0 ],
					"patching_rect" : [ 33.0, 561.0, 159.0, 23.0 ],
					"varname" : "vs_output",
					"viewvisibility" : 1
				}

			}
, 			{
				"box" : 				{
					"bgcolor" : [ 0.1568627451, 0.1568627451, 0.1568627451, 1.0 ],
					"fontname" : "Verdana",
					"fontsize" : 12.0,
					"id" : "obj-16",
					"maxclass" : "comment",
					"numinlets" : 1,
					"numoutlets" : 0,
					"patching_rect" : [ 2.0, 6.0, 963.0, 21.0 ],
					"text" : "The Sample&Hold takes a sample of the input image and holds it (freezes) over time and space.",
					"textcolor" : [ 0.694117647058824, 0.694117647058824, 0.694117647058824, 1.0 ]
				}

			}
, 			{
				"box" : 				{
					"hidden" : 1,
					"id" : "obj-15",
					"maxclass" : "newobj",
					"numinlets" : 1,
					"numoutlets" : 1,
					"outlettype" : [ "" ],
					"patching_rect" : [ 686.0, 112.145629999999983, 54.0, 22.0 ],
					"text" : "deferlow"
				}

			}
, 			{
				"box" : 				{
					"hidden" : 1,
					"id" : "obj-19",
					"linecount" : 2,
					"maxclass" : "message",
					"numinlets" : 2,
					"numoutlets" : 1,
					"outlettype" : [ "" ],
					"patching_rect" : [ 759.0, 205.145629999999983, 72.0, 35.0 ],
					"text" : ";\rmax refresh"
				}

			}
, 			{
				"box" : 				{
					"hidden" : 1,
					"id" : "obj-20",
					"maxclass" : "newobj",
					"numinlets" : 1,
					"numoutlets" : 2,
					"outlettype" : [ "", "" ],
					"patching_rect" : [ 817.0, 148.145629999999983, 69.0, 22.0 ],
					"save" : [ "#N", "thispatcher", ";", "#Q", "end", ";" ],
					"text" : "thispatcher"
				}

			}
, 			{
				"box" : 				{
					"hidden" : 1,
					"id" : "obj-21",
					"maxclass" : "message",
					"numinlets" : 2,
					"numoutlets" : 1,
					"outlettype" : [ "" ],
					"patching_rect" : [ 817.0, 102.645629999999983, 61.0, 22.0 ],
					"text" : "lockdown"
				}

			}
, 			{
				"box" : 				{
					"hidden" : 1,
					"id" : "obj-22",
					"maxclass" : "newobj",
					"numinlets" : 1,
					"numoutlets" : 1,
					"outlettype" : [ "bang" ],
					"patching_rect" : [ 686.0, 41.645629999999997, 58.0, 22.0 ],
					"text" : "loadbang"
				}

			}
, 			{
				"box" : 				{
					"active1" : [ 1.0, 0.648910641670227, 0.313351899385452, 1.0 ],
					"bgcolor" : [ 0.07843137254902, 0.07843137254902, 0.07843137254902, 1.0 ],
					"bubblesize" : 15,
					"emptycolor" : [ 0.125490196078431, 0.133333333333333, 0.145098039215686, 0.988235294117647 ],
					"hint" : "Shift-click to store a preset. Click on a stored preset to recall it.",
					"id" : "obj-5",
					"maxclass" : "preset",
					"numinlets" : 1,
					"numoutlets" : 5,
					"outlettype" : [ "preset", "int", "preset", "int", "" ],
					"patching_rect" : [ 522.0, 312.0, 128.0, 21.0 ],
					"pattrstorage" : "repaso_s&h",
					"stored1" : [ 0.65098, 0.666667, 0.662745, 1.0 ]
				}

			}
, 			{
				"box" : 				{
					"bgmode" : 0,
					"border" : 0,
					"clickthrough" : 0,
					"enablehscroll" : 0,
					"enablevscroll" : 0,
					"id" : "obj-12",
					"lockeddragscroll" : 0,
					"lockedsize" : 0,
					"maxclass" : "bpatcher",
					"name" : "vs_preview.maxpat",
					"numinlets" : 1,
					"numoutlets" : 1,
					"offset" : [ 0.0, 0.0 ],
					"outlettype" : [ "" ],
					"patching_rect" : [ 337.0, 361.0, 92.0, 88.0 ],
					"varname" : "vs_preview[1]",
					"viewvisibility" : 1
				}

			}
, 			{
				"box" : 				{
					"bgcolor" : [ 0.1568627451, 0.1568627451, 0.1568627451, 1.0 ],
					"fontname" : "Verdana",
					"fontsize" : 12.0,
					"id" : "obj-1",
					"linecount" : 16,
					"maxclass" : "comment",
					"numinlets" : 1,
					"numoutlets" : 0,
					"patching_rect" : [ 522.0, 340.0, 434.0, 240.0 ],
					"text" : "Preset 1 = S&H takes a sample from the camera image where it is white in the right input and hold it for as long as it is black. In this configuration in which we have a brief impulse, the [spatial s&h] works just like the [s&h] module. You can try changing the pulse-width of the square-wave to finish understanding the operation.\n\nPreset 2 = Unlike the previous preset in which we take the sample of the whole image, we take the sample in only a strip. In this configuration we obtain a result similar to the Slit-Scan photographic technique.\n\nPreset 3 = Same as previous but with a higher speed, note that at higher scanning speed, greater scaling in the Slit-Scan (stepped).\n\nPreset 4 = When using different waveforms which have shades of gray, we get a softer effect similar to the \"trails\" but sectorized.",
					"textcolor" : [ 0.694117647058824, 0.694117647058824, 0.694117647058824, 1.0 ]
				}

			}
, 			{
				"box" : 				{
					"bgmode" : 1,
					"border" : 0,
					"clickthrough" : 0,
					"enablehscroll" : 0,
					"enablevscroll" : 0,
					"id" : "obj-3",
					"lockeddragscroll" : 0,
					"lockedsize" : 0,
					"maxclass" : "bpatcher",
					"name" : "vs_camera_s.maxpat",
					"numinlets" : 1,
					"numoutlets" : 1,
					"offset" : [ 0.0, 0.0 ],
					"outlettype" : [ "jit_gl_texture" ],
					"patching_rect" : [ 33.0, 61.5, 141.0, 47.0 ],
					"varname" : "vs_camera_s",
					"viewvisibility" : 1
				}

			}
, 			{
				"box" : 				{
					"hidden" : 1,
					"id" : "obj-14",
					"maxclass" : "message",
					"numinlets" : 2,
					"numoutlets" : 1,
					"outlettype" : [ "" ],
					"patching_rect" : [ 582.0, 188.645629999999983, 141.0, 22.0 ],
					"text" : "read repaso_s&h.json, 1"
				}

			}
, 			{
				"box" : 				{
					"hidden" : 1,
					"id" : "obj-13",
					"maxclass" : "message",
					"numinlets" : 2,
					"numoutlets" : 1,
					"outlettype" : [ "" ],
					"patching_rect" : [ 404.0, 73.999999999999986, 63.0, 22.0 ],
					"text" : "enable $1"
				}

			}
, 			{
				"box" : 				{
					"hidden" : 1,
					"id" : "obj-11",
					"maxclass" : "newobj",
					"numinlets" : 1,
					"numoutlets" : 1,
					"outlettype" : [ "int" ],
					"patching_rect" : [ 404.0, 41.645629999999997, 42.0, 22.0 ],
					"text" : "active"
				}

			}
, 			{
				"box" : 				{
					"autorestore" : "repaso_s&h.json",
					"hidden" : 1,
					"id" : "obj-10",
					"maxclass" : "newobj",
					"numinlets" : 1,
					"numoutlets" : 1,
					"outlettype" : [ "" ],
					"patching_rect" : [ 582.0, 227.5, 142.0, 22.0 ],
					"priority" : 					{
						"vs_wfg_2::wfg2_freq_range" : -1,
						"vs_wfg_2::wfg2_fm_range" : -1,
						"vs_wfg_2::wfg2_pm_range" : -1
					}
,
					"saved_object_attributes" : 					{
						"client_rect" : [ 4, 44, 358, 172 ],
						"parameter_enable" : 0,
						"parameter_mappable" : 0,
						"storage_rect" : [ 583, 69, 1034, 197 ]
					}
,
					"text" : "pattrstorage repaso_s&h",
					"varname" : "repaso_s&h"
				}

			}
, 			{
				"box" : 				{
					"bgmode" : 0,
					"border" : 0,
					"clickthrough" : 0,
					"enablehscroll" : 0,
					"enablevscroll" : 0,
					"id" : "obj-4",
					"lockeddragscroll" : 0,
					"lockedsize" : 0,
					"maxclass" : "bpatcher",
					"name" : "vs_preview.maxpat",
					"numinlets" : 1,
					"numoutlets" : 1,
					"offset" : [ 0.0, 0.0 ],
					"outlettype" : [ "" ],
					"patching_rect" : [ 33.0, 341.0, 225.0, 184.0 ],
					"varname" : "vs_preview",
					"viewvisibility" : 1
				}

			}
, 			{
				"box" : 				{
					"bgmode" : 0,
					"border" : 0,
					"clickthrough" : 0,
					"enablehscroll" : 0,
					"enablevscroll" : 0,
					"id" : "obj-7",
					"lockeddragscroll" : 0,
					"lockedsize" : 0,
					"maxclass" : "bpatcher",
					"name" : "vs_s&h_spat.maxpat",
					"numinlets" : 2,
					"numoutlets" : 1,
					"offset" : [ 0.0, 0.0 ],
					"outlettype" : [ "jit_gl_texture" ],
					"patching_rect" : [ 33.0, 302.145629999999983, 77.0, 16.0 ],
					"viewvisibility" : 1
				}

			}
, 			{
				"box" : 				{
					"bgmode" : 1,
					"border" : 0,
					"clickthrough" : 0,
					"enablehscroll" : 0,
					"enablevscroll" : 0,
					"id" : "obj-8",
					"lockeddragscroll" : 0,
					"lockedsize" : 0,
					"maxclass" : "bpatcher",
					"name" : "vs_wfg_2.maxpat",
					"numinlets" : 3,
					"numoutlets" : 2,
					"offset" : [ 0.0, 0.0 ],
					"outlettype" : [ "", "" ],
					"patching_rect" : [ 79.0, 143.145629999999983, 277.0, 99.999999999999972 ],
					"varname" : "vs_wfg_2",
					"viewvisibility" : 1
				}

			}
 ],
		"lines" : [ 			{
				"patchline" : 				{
					"destination" : [ "obj-13", 0 ],
					"hidden" : 1,
					"source" : [ "obj-11", 0 ]
				}

			}
, 			{
				"patchline" : 				{
					"destination" : [ "obj-12", 0 ],
					"hidden" : 1,
					"order" : 4,
					"source" : [ "obj-13", 0 ]
				}

			}
, 			{
				"patchline" : 				{
					"destination" : [ "obj-4", 0 ],
					"hidden" : 1,
					"order" : 3,
					"source" : [ "obj-13", 0 ]
				}

			}
, 			{
				"patchline" : 				{
					"destination" : [ "obj-6", 0 ],
					"hidden" : 1,
					"order" : 2,
					"source" : [ "obj-13", 0 ]
				}

			}
, 			{
				"patchline" : 				{
					"destination" : [ "obj-7", 0 ],
					"hidden" : 1,
					"order" : 1,
					"source" : [ "obj-13", 0 ]
				}

			}
, 			{
				"patchline" : 				{
					"destination" : [ "obj-8", 0 ],
					"hidden" : 1,
					"order" : 0,
					"source" : [ "obj-13", 0 ]
				}

			}
, 			{
				"patchline" : 				{
					"color" : [ 0.65, 0.65, 0.65, 0.0 ],
					"destination" : [ "obj-10", 0 ],
					"hidden" : 1,
					"source" : [ "obj-14", 0 ]
				}

			}
, 			{
				"patchline" : 				{
					"destination" : [ "obj-14", 0 ],
					"hidden" : 1,
					"order" : 1,
					"source" : [ "obj-15", 0 ]
				}

			}
, 			{
				"patchline" : 				{
					"destination" : [ "obj-19", 0 ],
					"hidden" : 1,
					"order" : 0,
					"source" : [ "obj-15", 0 ]
				}

			}
, 			{
				"patchline" : 				{
					"destination" : [ "obj-20", 0 ],
					"hidden" : 1,
					"source" : [ "obj-21", 0 ]
				}

			}
, 			{
				"patchline" : 				{
					"destination" : [ "obj-15", 0 ],
					"hidden" : 1,
					"order" : 1,
					"source" : [ "obj-22", 0 ]
				}

			}
, 			{
				"patchline" : 				{
					"destination" : [ "obj-21", 0 ],
					"hidden" : 1,
					"order" : 0,
					"source" : [ "obj-22", 0 ]
				}

			}
, 			{
				"patchline" : 				{
					"destination" : [ "obj-7", 0 ],
					"source" : [ "obj-3", 0 ]
				}

			}
, 			{
				"patchline" : 				{
					"destination" : [ "obj-6", 0 ],
					"source" : [ "obj-4", 0 ]
				}

			}
, 			{
				"patchline" : 				{
					"destination" : [ "obj-4", 0 ],
					"source" : [ "obj-7", 0 ]
				}

			}
, 			{
				"patchline" : 				{
					"destination" : [ "obj-12", 0 ],
					"order" : 1,
					"source" : [ "obj-8", 1 ]
				}

			}
, 			{
				"patchline" : 				{
					"destination" : [ "obj-7", 1 ],
					"order" : 0,
					"source" : [ "obj-8", 1 ]
				}

			}
 ],
		"parameters" : 		{
			"obj-3::obj-18" : [ "live.text", "live.text", 0 ],
			"obj-3::obj-20" : [ "cam_invx", "flip_x", 0 ],
			"obj-6::obj-1" : [ "toggle[1]", "toggle", 0 ],
			"obj-6::obj-10" : [ "toggle[2]", "toggle[2]", 0 ],
			"obj-6::obj-36" : [ "uppr_x", "uppr_x", 0 ],
			"obj-8::obj-10" : [ "wfg2_pm", "pm", 0 ],
			"obj-8::obj-13" : [ "wfg2_freq_range", "scale_freq", 0 ],
			"obj-8::obj-130" : [ "wfg2_time", "time", 0 ],
			"obj-8::obj-139" : [ "wfg2_sync_lock", "sync_pos", 0 ],
			"obj-8::obj-23" : [ "wfg2_pwm", "pwm", 0 ],
			"obj-8::obj-24" : [ "wfg2_pw", "pw", 0 ],
			"obj-8::obj-25" : [ "wfg2_fm", "fm", 0 ],
			"obj-8::obj-26" : [ "wfg2_freq", "freq", 0 ],
			"obj-8::obj-27" : [ "wfg2_wf", "waveform", 0 ],
			"obj-8::obj-28" : [ "live.toggle[2]", "live.toggle[1]", 0 ],
			"obj-8::obj-6" : [ "wfg2_fm_range", "scale_freq_fm", 0 ],
			"obj-8::obj-63" : [ "wfg2_phase", "Phase", 0 ],
			"obj-8::obj-72" : [ "wfg2_phase_time_switch", "wfg2_phase_time_switch", 0 ],
			"obj-8::obj-73" : [ "wfg2_time_range", "wfg2_time_range", 0 ],
			"parameterbanks" : 			{

			}
,
			"parameter_overrides" : 			{
				"obj-8::obj-10" : 				{
					"parameter_range" : [ -1.0, 1.0 ],
					"parameter_shortname" : "pm"
				}
,
				"obj-8::obj-13" : 				{
					"parameter_longname" : "wfg2_freq_range",
					"parameter_shortname" : "scale_freq"
				}
,
				"obj-8::obj-130" : 				{
					"parameter_shortname" : "time"
				}
,
				"obj-8::obj-139" : 				{
					"parameter_longname" : "wfg2_sync_lock",
					"parameter_shortname" : "sync_pos"
				}
,
				"obj-8::obj-23" : 				{
					"parameter_shortname" : "pwm"
				}
,
				"obj-8::obj-24" : 				{
					"parameter_shortname" : "pw"
				}
,
				"obj-8::obj-25" : 				{
					"parameter_range" : [ -1.0, 1.0 ],
					"parameter_shortname" : "fm"
				}
,
				"obj-8::obj-26" : 				{
					"parameter_range" : [ 0.0, 1020.0 ],
					"parameter_shortname" : "freq"
				}
,
				"obj-8::obj-27" : 				{
					"parameter_longname" : "wfg2_wf",
					"parameter_shortname" : "waveform"
				}
,
				"obj-8::obj-6" : 				{
					"parameter_longname" : "wfg2_fm_range",
					"parameter_shortname" : "scale_freq_fm"
				}

			}
,
			"inherited_shortname" : 1
		}
,
		"dependency_cache" : [ 			{
				"name" : "bpatRect.js",
				"bootpath" : "~/Documents/Max 8/Packages/Vsynth/javascript",
				"patcherrelativepath" : "../../javascript",
				"type" : "TEXT",
				"implicit" : 1
			}
, 			{
				"name" : "down.svg",
				"bootpath" : "C74:/media/max/picts/m4l-picts",
				"type" : "svg",
				"implicit" : 1
			}
, 			{
				"name" : "moduleSize.js",
				"bootpath" : "~/Documents/Max 8/Packages/Vsynth/javascript",
				"patcherrelativepath" : "../../javascript",
				"type" : "TEXT",
				"implicit" : 1
			}
, 			{
				"name" : "noise2.svg",
				"bootpath" : "~/Documents/Max 8/Packages/Vsynth/media",
				"patcherrelativepath" : "../../media",
				"type" : "svg",
				"implicit" : 1
			}
, 			{
				"name" : "repaso_s&h.json",
				"bootpath" : "~/Documents/Max 8/Packages/Vsynth/patchers/launcher_help",
				"patcherrelativepath" : ".",
				"type" : "JSON",
				"implicit" : 1
			}
, 			{
				"name" : "saw.svg",
				"bootpath" : "C74:/media/max/picts/m4l-picts",
				"type" : "svg",
				"implicit" : 1
			}
, 			{
				"name" : "sine.svg",
				"bootpath" : "C74:/media/max/picts/m4l-picts",
				"type" : "svg",
				"implicit" : 1
			}
, 			{
				"name" : "square.svg",
				"bootpath" : "C74:/media/max/picts/m4l-picts",
				"type" : "svg",
				"implicit" : 1
			}
, 			{
				"name" : "up.svg",
				"bootpath" : "C74:/media/max/picts/m4l-picts",
				"type" : "svg",
				"implicit" : 1
			}
, 			{
				"name" : "vs_camera_s.maxpat",
				"bootpath" : "~/Documents/Max 8/Packages/Vsynth/patchers",
				"patcherrelativepath" : "..",
				"type" : "JSON",
				"implicit" : 1
			}
, 			{
				"name" : "vs_output.maxpat",
				"bootpath" : "~/Documents/Max 8/Packages/Vsynth/patchers",
				"patcherrelativepath" : "..",
				"type" : "JSON",
				"implicit" : 1
			}
, 			{
				"name" : "vs_preview.maxpat",
				"bootpath" : "~/Documents/Max 8/Packages/Vsynth/patchers",
				"patcherrelativepath" : "..",
				"type" : "JSON",
				"implicit" : 1
			}
, 			{
				"name" : "vs_s&h_spat.maxpat",
				"bootpath" : "~/Documents/Max 8/Packages/Vsynth/patchers",
				"patcherrelativepath" : "..",
				"type" : "JSON",
				"implicit" : 1
			}
, 			{
				"name" : "vs_wfg_2.maxpat",
				"bootpath" : "~/Documents/Max 8/Packages/Vsynth/patchers",
				"patcherrelativepath" : "..",
				"type" : "JSON",
				"implicit" : 1
			}
, 			{
				"name" : "vs_wfg_sine.genjit",
				"bootpath" : "~/Documents/Max 8/Packages/Vsynth/code",
				"patcherrelativepath" : "../../code",
				"type" : "gJIT",
				"implicit" : 1
			}
 ],
		"autosave" : 0,
		"styles" : [ 			{
				"name" : "minimal",
				"default" : 				{
					"accentcolor" : [ 0.32549, 0.345098, 0.372549, 1.0 ],
					"bgcolor" : [ 0.878431, 0.878431, 0.858824, 1.0 ],
					"bgfillcolor" : 					{
						"angle" : 270.0,
						"autogradient" : 0,
						"color" : [ 0.65098, 0.65098, 0.65098, 1.0 ],
						"color1" : [ 0.878431, 0.878431, 0.858824, 1.0 ],
						"color2" : [ 0.290196, 0.309804, 0.301961, 1.0 ],
						"proportion" : 0.99,
						"type" : "color"
					}
,
					"color" : [ 0.345098, 0.513725, 0.572549, 0.78 ],
					"elementcolor" : [ 0.32549, 0.345098, 0.372549, 0.44 ],
					"patchlinecolor" : [ 0.65, 0.65, 0.65, 0.9 ],
					"selectioncolor" : [ 0.862745, 0.741176, 0.137255, 0.7 ],
					"textcolor_inverse" : [ 0.0, 0.0, 0.0, 1.0 ]
				}
,
				"parentstyle" : "",
				"multi" : 0
			}
 ],
		"bgcolor" : [ 0.2431372549, 0.2431372549, 0.2431372549, 1.0 ],
		"editing_bgcolor" : [ 0.2431372549, 0.2431372549, 0.2431372549, 1.0 ]
	}

}
